<svg width="33" height="33" viewBox="0 0 33 33" fill="none" xmlns="http://www.w3.org/2000/svg">
<rect width="33" height="33" rx="8" fill="#2F445F"/>
<path d="M9.5 26.5C8.95 26.5 8.47917 26.3042 8.0875 25.9125C7.69583 25.5208 7.5 25.05 7.5 24.5V13.225C7.2 13.0417 6.95833 12.8042 6.775 12.5125C6.59167 12.2208 6.5 11.8833 6.5 11.5V8.5C6.5 7.95 6.69583 7.47917 7.0875 7.0875C7.47917 6.69583 7.95 6.5 8.5 6.5H24.5C25.05 6.5 25.5208 6.69583 25.9125 7.0875C26.3042 7.47917 26.5 7.95 26.5 8.5V11.5C26.5 11.8833 26.4083 12.2208 26.225 12.5125C26.0417 12.8042 25.8 13.0417 25.5 13.225V24.5C25.5 25.05 25.3042 25.5208 24.9125 25.9125C24.5208 26.3042 24.05 26.5 23.5 26.5H9.5ZM9.5 13.5V24.5H23.5V13.5H9.5ZM8.5 11.5H24.5V8.5H8.5V11.5ZM14.5 18.5H18.5C18.7833 18.5 19.0208 18.4042 19.2125 18.2125C19.4042 18.0208 19.5 17.7833 19.5 17.5C19.5 17.2167 19.4042 16.9792 19.2125 16.7875C19.0208 16.5958 18.7833 16.5 18.5 16.5H14.5C14.2167 16.5 13.9792 16.5958 13.7875 16.7875C13.5958 16.9792 13.5 17.2167 13.5 17.5C13.5 17.7833 13.5958 18.0208 13.7875 18.2125C13.9792 18.4042 14.2167 18.5 14.5 18.5Z" fill="#C6C6CD"/>
</svg>
