<svg width="33" height="33" viewBox="0 0 33 33" fill="none" xmlns="http://www.w3.org/2000/svg">
<rect width="33" height="33" rx="8" fill="#2F445F"/>
<g clip-path="url(#clip0_370_1782)">
<path d="M11.5 18.5C10.95 18.5 10.4792 18.3042 10.0875 17.9125C9.69583 17.5208 9.5 17.05 9.5 16.5C9.5 15.95 9.69583 15.4792 10.0875 15.0875C10.4792 14.6958 10.95 14.5 11.5 14.5C12.05 14.5 12.5208 14.6958 12.9125 15.0875C13.3042 15.4792 13.5 15.95 13.5 16.5C13.5 17.05 13.3042 17.5208 12.9125 17.9125C12.5208 18.3042 12.05 18.5 11.5 18.5ZM11.5 22.5C9.83333 22.5 8.41667 21.9167 7.25 20.75C6.08333 19.5833 5.5 18.1667 5.5 16.5C5.5 14.8333 6.08333 13.4167 7.25 12.25C8.41667 11.0833 9.83333 10.5 11.5 10.5C12.6167 10.5 13.6292 10.775 14.5375 11.325C15.4458 11.875 16.1667 12.6 16.7 13.5H25.075C25.2083 13.5 25.3375 13.525 25.4625 13.575C25.5875 13.625 25.7 13.7 25.8 13.8L27.8 15.8C27.9 15.9 27.9708 16.0083 28.0125 16.125C28.0542 16.2417 28.075 16.3667 28.075 16.5C28.075 16.6333 28.0542 16.7583 28.0125 16.875C27.9708 16.9917 27.9 17.1 27.8 17.2L24.625 20.375C24.5417 20.4583 24.4417 20.525 24.325 20.575C24.2083 20.625 24.0917 20.6583 23.975 20.675C23.8583 20.6917 23.7417 20.6833 23.625 20.65C23.5083 20.6167 23.4 20.5583 23.3 20.475L22 19.5L20.575 20.575C20.4917 20.6417 20.4 20.6917 20.3 20.725C20.2 20.7583 20.1 20.775 20 20.775C19.9 20.775 19.7958 20.7583 19.6875 20.725C19.5792 20.6917 19.4833 20.6417 19.4 20.575L17.875 19.5H16.7C16.1667 20.4 15.4458 21.125 14.5375 21.675C13.6292 22.225 12.6167 22.5 11.5 22.5ZM11.5 20.5C12.4333 20.5 13.2542 20.2167 13.9625 19.65C14.6708 19.0833 15.1417 18.3667 15.375 17.5H18.5L19.95 18.525L22 17L23.775 18.375L25.65 16.5L24.65 15.5H15.375C15.1417 14.6333 14.6708 13.9167 13.9625 13.35C13.2542 12.7833 12.4333 12.5 11.5 12.5C10.4 12.5 9.45833 12.8917 8.675 13.675C7.89167 14.4583 7.5 15.4 7.5 16.5C7.5 17.6 7.89167 18.5417 8.675 19.325C9.45833 20.1083 10.4 20.5 11.5 20.5Z" fill="#C6C6CD"/>
</g>
<defs>
<clipPath id="clip0_370_1782">
<rect width="24" height="24" fill="white" transform="translate(4.5 4.5)"/>
</clipPath>
</defs>
</svg>
