<svg width="33" height="33" viewBox="0 0 33 33" fill="none" xmlns="http://www.w3.org/2000/svg">
<rect width="33" height="33" rx="8" fill="#2F445F"/>
<path d="M16.5 18.5L14.15 20.85C14.2833 21.1 14.375 21.3667 14.425 21.65C14.475 21.9333 14.5 22.2167 14.5 22.5C14.5 23.6 14.1083 24.5417 13.325 25.325C12.5417 26.1083 11.6 26.5 10.5 26.5C9.4 26.5 8.45833 26.1083 7.675 25.325C6.89167 24.5417 6.5 23.6 6.5 22.5C6.5 21.4 6.89167 20.4583 7.675 19.675C8.45833 18.8917 9.4 18.5 10.5 18.5C10.7833 18.5 11.0667 18.525 11.35 18.575C11.6333 18.625 11.9 18.7167 12.15 18.85L14.5 16.5L12.15 14.15C11.9 14.2833 11.6333 14.375 11.35 14.425C11.0667 14.475 10.7833 14.5 10.5 14.5C9.4 14.5 8.45833 14.1083 7.675 13.325C6.89167 12.5417 6.5 11.6 6.5 10.5C6.5 9.4 6.89167 8.45833 7.675 7.675C8.45833 6.89167 9.4 6.5 10.5 6.5C11.6 6.5 12.5417 6.89167 13.325 7.675C14.1083 8.45833 14.5 9.4 14.5 10.5C14.5 10.7833 14.475 11.0667 14.425 11.35C14.375 11.6333 14.2833 11.9 14.15 12.15L25.1 23.1C25.55 23.55 25.65 24.0625 25.4 24.6375C25.15 25.2125 24.7083 25.5 24.075 25.5C23.8917 25.5 23.7125 25.4625 23.5375 25.3875C23.3625 25.3125 23.2083 25.2083 23.075 25.075L16.5 18.5ZM19.5 15.5L17.5 13.5L23.075 7.925C23.2083 7.79167 23.3625 7.6875 23.5375 7.6125C23.7125 7.5375 23.8917 7.5 24.075 7.5C24.7083 7.5 25.1458 7.79167 25.3875 8.375C25.6292 8.95833 25.525 9.475 25.075 9.925L19.5 15.5ZM10.5 12.5C11.05 12.5 11.5208 12.3042 11.9125 11.9125C12.3042 11.5208 12.5 11.05 12.5 10.5C12.5 9.95 12.3042 9.47917 11.9125 9.0875C11.5208 8.69583 11.05 8.5 10.5 8.5C9.95 8.5 9.47917 8.69583 9.0875 9.0875C8.69583 9.47917 8.5 9.95 8.5 10.5C8.5 11.05 8.69583 11.5208 9.0875 11.9125C9.47917 12.3042 9.95 12.5 10.5 12.5ZM16.5 17C16.6333 17 16.75 16.95 16.85 16.85C16.95 16.75 17 16.6333 17 16.5C17 16.3667 16.95 16.25 16.85 16.15C16.75 16.05 16.6333 16 16.5 16C16.3667 16 16.25 16.05 16.15 16.15C16.05 16.25 16 16.3667 16 16.5C16 16.6333 16.05 16.75 16.15 16.85C16.25 16.95 16.3667 17 16.5 17ZM10.5 24.5C11.05 24.5 11.5208 24.3042 11.9125 23.9125C12.3042 23.5208 12.5 23.05 12.5 22.5C12.5 21.95 12.3042 21.4792 11.9125 21.0875C11.5208 20.6958 11.05 20.5 10.5 20.5C9.95 20.5 9.47917 20.6958 9.0875 21.0875C8.69583 21.4792 8.5 21.95 8.5 22.5C8.5 23.05 8.69583 23.5208 9.0875 23.9125C9.47917 24.3042 9.95 24.5 10.5 24.5Z" fill="#C6C6CD"/>
</svg>
