<svg width="15" height="15" viewBox="0 0 15 15" fill="none" xmlns="http://www.w3.org/2000/svg">
<path d="M8.30103 3.75873L6.69897 3.75873L6.69897 8.23506H8.30103L8.30103 3.75873ZM7.5 9.61734C7.26686 9.61734 7.0714 9.69618 6.91361 9.85385C6.75594 10.0116 6.6771 10.2071 6.6771 10.4402C6.6771 10.6734 6.75594 10.8688 6.91361 11.0266C7.0714 11.1843 7.26686 11.2631 7.5 11.2631C7.73314 11.2631 7.9286 11.1843 8.08639 11.0266C8.24406 10.8688 8.3229 10.6734 8.3229 10.4402C8.3229 10.2071 8.24406 10.0116 8.08639 9.85385C7.9286 9.69618 7.73314 9.61734 7.5 9.61734ZM7.5 0C8.54023 0 9.51627 0.196751 10.4281 0.590253C11.3401 0.983755 12.1333 1.51772 12.8079 2.19213C13.4823 2.86667 14.0162 3.65993 14.4097 4.57189C14.8032 5.48373 15 6.45977 15 7.5C15 8.54023 14.8032 9.51627 14.4097 10.4281C14.0162 11.3401 13.4823 12.1333 12.8079 12.8079C12.1333 13.4823 11.3401 14.0162 10.4281 14.4097C9.51627 14.8032 8.54023 15 7.5 15C6.45977 15 5.48373 14.8032 4.57189 14.4097C3.65992 14.0162 2.86667 13.4823 2.19213 12.8079C1.51771 12.1333 0.983755 11.3401 0.590253 10.4281C0.196751 9.51627 0 8.54023 0 7.5C0 6.45977 0.196751 5.48373 0.590253 4.57189C0.983755 3.65993 1.51771 2.86667 2.19213 2.19213C2.86667 1.51772 3.65992 0.983755 4.57189 0.590253C5.48373 0.196751 6.45977 0 7.5 0ZM7.5 1.67226C5.87013 1.67226 4.49134 2.23605 3.36363 3.36364C2.23605 4.49134 1.67226 5.87013 1.67226 7.5C1.67226 9.12987 2.23605 10.5087 3.36363 11.6364C4.49134 12.7639 5.87013 13.3277 7.5 13.3277C9.12987 13.3277 10.5087 12.7639 11.6364 11.6364C12.7639 10.5087 13.3277 9.12987 13.3277 7.5C13.3277 5.87013 12.7639 4.49134 11.6364 3.36364C10.5087 2.23605 9.12987 1.67226 7.5 1.67226Z" fill="white"/>
</svg>
