<svg width="13" height="13" viewBox="0 0 13 13" fill="none" xmlns="http://www.w3.org/2000/svg">
<path d="M7.18102 3.31883H5.81883V7.12492H7.18102V3.31883ZM6.49992 8.30023C6.30169 8.30023 6.13549 8.36727 6.00133 8.50133C5.86727 8.6355 5.80023 8.80169 5.80023 8.99992C5.80023 9.19815 5.86727 9.36435 6.00133 9.49851C6.13549 9.63258 6.30169 9.69961 6.49992 9.69961C6.69815 9.69961 6.86435 9.63258 6.99852 9.49851C7.13258 9.36435 7.19961 9.19815 7.19961 8.99992C7.19961 8.80169 7.13258 8.6355 6.99852 8.50133C6.86435 8.36727 6.69815 8.30023 6.49992 8.30023ZM6.49992 0.12289C7.3844 0.12289 8.2143 0.290182 8.98961 0.624765C9.76503 0.959349 10.4395 1.41336 11.013 1.9868C11.5865 2.56034 12.0405 3.23482 12.3751 4.01023C12.7097 4.78555 12.877 5.61544 12.877 6.49992C12.877 7.3844 12.7097 8.2143 12.3751 8.98961C12.0405 9.76503 11.5865 10.4395 11.013 11.013C10.4395 11.5865 9.76503 12.0405 8.98961 12.3751C8.2143 12.7097 7.3844 12.877 6.49992 12.877C5.61544 12.877 4.78555 12.7097 4.01023 12.3751C3.23482 12.0405 2.56034 11.5865 1.9868 11.013C1.41336 10.4395 0.959349 9.76503 0.624765 8.98961C0.290182 8.2143 0.12289 7.3844 0.12289 6.49992C0.12289 5.61544 0.290182 4.78555 0.624765 4.01023C0.959349 3.23482 1.41336 2.56034 1.9868 1.9868C2.56034 1.41336 3.23482 0.959349 4.01023 0.624765C4.78555 0.290182 5.61544 0.12289 6.49992 0.12289ZM6.49992 1.54477C5.11409 1.54477 3.94174 2.02414 2.98289 2.98289C2.02414 3.94175 1.54477 5.11409 1.54477 6.49992C1.54477 7.88576 2.02414 9.0581 2.98289 10.017C3.94174 10.9757 5.11409 11.4551 6.49992 11.4551C7.88576 11.4551 9.0581 10.9757 10.017 10.017C10.9757 9.0581 11.4551 7.88576 11.4551 6.49992C11.4551 5.11409 10.9757 3.94175 10.017 2.98289C9.0581 2.02414 7.88576 1.54477 6.49992 1.54477Z" fill="#AD2F2F"/>
</svg>
