<?xml version="1.0" standalone="no"?>
<!DOCTYPE svg PUBLIC "-//W3C//DTD SVG 20010904//EN"
 "http://www.w3.org/TR/2001/REC-SVG-20010904/DTD/svg10.dtd">
<svg version="1.0" xmlns="http://www.w3.org/2000/svg"
 width="1280.000000pt" height="336.000000pt" viewBox="0 0 1280.000000 336.000000"
 preserveAspectRatio="xMidYMid meet">

<g transform="translate(0.000000,336.000000) scale(0.100000,-0.100000)"
fill="#000000" stroke="none">
<path d="M1026 3289 c-62 -55 -91 -117 -90 -192 1 -45 6 -63 22 -79 20 -21 22
-21 59 -4 65 29 113 125 113 226 0 32 -3 65 -6 74 -11 28 -50 17 -98 -25z"/>
<path d="M2172 3318 c-17 -17 -15 -127 3 -179 20 -56 57 -104 96 -123 47 -24
64 -20 77 17 30 84 2 173 -80 249 -53 49 -75 57 -96 36z"/>
<path d="M1300 3214 c-74 -29 -150 -85 -150 -111 0 -7 -4 -13 -10 -13 -5 0
-10 -5 -10 -12 0 -15 -49 -58 -66 -58 -7 0 -14 -3 -16 -8 -1 -4 -38 -29 -80
-55 -108 -67 -240 -171 -326 -257 -40 -40 -74 -71 -77 -69 -2 3 1 25 6 49 13
59 3 133 -27 197 -43 90 -87 79 -119 -30 -38 -127 8 -279 80 -261 14 3 25 3
25 0 0 -9 -109 -164 -121 -171 -5 -4 -9 1 -9 10 0 30 -33 120 -59 158 -13 21
-38 45 -54 54 -39 20 -53 6 -67 -67 -20 -105 25 -223 96 -258 32 -15 35 -19
29 -49 -3 -18 -12 -45 -20 -60 -8 -15 -15 -38 -15 -51 0 -35 -22 -22 -45 26
-11 23 -35 57 -53 77 -33 34 -105 65 -120 51 -4 -4 -6 -39 -5 -77 3 -120 52
-198 145 -228 41 -14 47 -23 42 -66 -2 -16 -6 -56 -9 -87 -4 -32 -9 -58 -13
-58 -4 0 -16 19 -27 41 -24 51 -66 84 -138 107 -62 21 -77 15 -77 -27 0 -30
29 -111 46 -128 7 -7 14 -17 16 -22 7 -20 123 -81 153 -81 23 0 35 -6 43 -22
12 -26 31 -178 22 -178 -3 0 -21 16 -40 35 -39 40 -123 75 -180 75 -38 0 -40
-1 -40 -33 0 -43 54 -124 105 -157 66 -43 106 -53 146 -36 40 16 59 11 59 -14
0 -11 9 -42 20 -70 30 -76 28 -84 -17 -64 -62 27 -115 36 -171 29 -49 -6 -52
-8 -52 -35 0 -38 54 -102 108 -129 54 -27 166 -29 201 -5 20 14 25 15 31 3 5
-8 31 -45 59 -83 28 -38 50 -71 48 -73 -2 -2 -34 4 -71 12 -75 18 -155 9 -200
-20 -58 -39 33 -118 155 -135 78 -11 128 1 161 41 l27 33 58 -55 c32 -30 73
-65 90 -79 39 -30 42 -43 7 -30 -14 6 -55 10 -90 10 -74 0 -159 -33 -183 -72
-12 -20 -11 -24 17 -49 55 -50 174 -58 274 -20 46 17 63 74 32 105 -26 27 -2
18 52 -18 53 -36 154 -89 239 -126 28 -11 59 -25 70 -30 11 -5 50 -19 88 -31
68 -22 87 -39 42 -39 -59 0 -144 -60 -175 -125 -31 -63 -19 -75 74 -75 64 0
76 3 121 34 47 31 66 57 94 129 12 30 28 33 78 15 40 -15 41 -21 6 -44 -92
-59 -163 -155 -195 -257 -34 -113 -9 -101 56 27 91 179 185 260 280 242 60
-11 162 -121 219 -236 26 -52 47 -101 47 -107 0 -7 7 -13 15 -13 18 0 18 9 4
70 -21 92 -39 119 -147 226 -77 76 -82 83 -63 93 11 6 33 11 50 11 27 0 31 -5
41 -40 25 -91 101 -141 228 -148 94 -5 99 1 61 73 -35 66 -115 125 -169 125
-19 0 -20 2 -10 15 7 8 22 15 35 15 12 0 24 3 28 6 6 7 137 54 149 54 3 0 1
-14 -5 -30 -15 -38 -5 -55 54 -95 42 -28 49 -30 146 -30 83 0 105 3 119 17 25
24 7 58 -51 98 -65 45 -215 80 -215 50 0 -5 -8 -10 -17 -10 -23 0 -9 11 62 50
109 60 123 69 175 105 59 41 88 66 174 148 l61 58 3 -31 c5 -47 38 -63 131
-63 68 0 86 4 131 29 30 16 62 41 73 56 20 26 20 28 3 47 -36 40 -150 52 -230
25 -26 -9 -50 -14 -53 -11 -5 6 36 70 48 75 4 2 22 26 40 53 l32 50 21 -21
c18 -16 35 -20 95 -20 87 0 142 27 191 93 53 72 37 97 -59 97 -59 -1 -90 -8
-155 -35 -17 -8 -18 -5 -12 40 4 26 11 55 16 64 13 25 53 199 73 316 11 68 12
259 2 320 -5 29 -3 31 39 43 93 25 145 99 153 221 7 99 -4 112 -71 80 -53 -24
-91 -65 -118 -126 -21 -47 -38 -63 -38 -36 -1 21 -34 120 -44 130 -12 12 -6
33 9 33 34 0 72 31 100 82 26 46 30 63 30 128 0 84 -22 140 -54 140 -43 0
-116 -118 -128 -207 -5 -39 -22 -61 -23 -30 -1 6 -23 46 -50 87 l-49 75 29 8
c91 24 113 249 32 330 -38 38 -55 32 -84 -30 -19 -40 -23 -65 -23 -151 l0
-103 -55 59 c-91 98 -195 181 -365 290 -11 6 -27 15 -35 19 -8 4 -17 9 -20 12
-3 3 -23 15 -44 26 -23 12 -44 32 -52 50 -43 100 -204 166 -299 123 -34 -15
-32 -36 9 -89 52 -69 106 -92 220 -94 75 -1 98 -5 112 -19 14 -15 15 -19 3
-27 -8 -5 -27 -9 -44 -9 -58 0 -185 -95 -185 -138 0 -22 46 -36 120 -36 93 0
180 35 208 83 21 38 41 39 91 5 54 -35 60 -54 17 -54 -60 0 -173 -47 -194 -81
-29 -46 41 -89 146 -89 75 0 125 16 179 57 l34 26 39 -44 c22 -24 44 -49 48
-55 7 -7 -19 -10 -87 -10 -156 1 -213 -41 -143 -106 67 -64 196 -80 279 -33
25 14 47 24 48 23 2 -2 21 -32 44 -68 44 -70 39 -85 -18 -56 -30 16 -172 23
-205 10 -39 -15 -4 -84 67 -133 61 -41 142 -56 198 -36 24 8 48 17 54 18 5 1
16 -18 25 -43 8 -25 18 -50 22 -55 3 -6 9 -32 13 -60 l7 -50 -23 31 c-57 77
-182 125 -253 98 -48 -19 31 -151 116 -195 42 -22 137 -26 156 -7 17 17 21 9
33 -82 8 -61 8 -115 0 -204 -11 -118 -40 -266 -52 -266 -3 0 -9 27 -12 60 -5
59 -27 102 -76 151 -24 23 -81 49 -109 49 -24 0 -25 0 -19 -77 5 -89 22 -128
78 -184 44 -44 83 -58 111 -40 19 12 19 10 13 -20 -4 -19 -11 -40 -16 -49 -4
-8 -18 -37 -31 -63 -12 -27 -25 -50 -29 -53 -4 -2 -10 15 -14 38 -12 70 -45
135 -87 173 -72 63 -98 42 -98 -78 0 -116 38 -194 106 -219 19 -7 33 -17 30
-23 -7 -20 -89 -125 -96 -125 -4 0 -11 30 -14 68 -11 105 -61 198 -104 190
-27 -5 -56 -78 -60 -151 -5 -86 12 -150 49 -182 16 -13 29 -28 29 -33 0 -5
-19 -24 -42 -42 -24 -19 -44 -38 -46 -42 -2 -4 -8 -8 -13 -8 -5 0 -9 38 -9 85
0 82 -14 138 -42 172 -9 11 -15 11 -37 -3 -14 -10 -33 -27 -41 -38 -22 -30
-49 -116 -50 -154 0 -40 29 -132 41 -132 5 0 9 -8 9 -18 0 -12 -21 -27 -67
-48 -38 -17 -69 -30 -70 -29 -2 0 6 25 17 53 34 90 22 212 -22 220 -14 3 -79
-54 -115 -101 -21 -27 -32 -127 -21 -190 6 -32 9 -59 7 -60 -10 -7 -211 -69
-264 -82 -85 -21 -261 -19 -371 4 -92 20 -243 67 -258 81 -4 5 0 31 9 60 21
63 15 115 -21 179 -23 43 -98 111 -122 111 -31 0 -41 -121 -17 -213 8 -32 15
-60 15 -62 0 -6 -30 7 -78 34 -45 27 -50 43 -27 87 22 43 20 165 -4 217 -66
143 -131 108 -139 -75 -2 -54 -8 -98 -13 -98 -5 0 -17 8 -28 17 -10 10 -36 33
-57 52 l-38 34 30 15 c17 8 39 30 50 50 38 70 20 259 -27 288 -17 10 -59 -27
-85 -76 -19 -35 -24 -60 -24 -117 0 -40 -4 -73 -9 -73 -11 0 -111 122 -111
136 0 6 19 19 42 30 69 31 93 85 93 206 0 117 -8 131 -60 104 -61 -33 -115
-136 -115 -219 0 -30 -4 -47 -9 -41 -13 13 -71 125 -71 136 0 6 -6 24 -14 41
-8 18 -21 55 -29 82 -14 44 -21 81 -42 215 -8 53 -8 238 0 295 21 155 47 249
98 354 12 25 12 25 15 -8 2 -23 10 -35 28 -42 33 -12 100 -12 144 1 44 12 127
76 149 113 15 27 15 29 -3 43 -23 16 -191 20 -201 5 -3 -5 -19 -12 -35 -16
-17 -4 -30 -11 -30 -15 0 -5 -9 -14 -20 -20 -18 -10 -19 -8 -11 12 16 41 45
93 58 106 7 8 18 22 23 33 14 25 22 24 66 -6 30 -20 49 -25 99 -25 129 0 258
82 202 128 -7 6 -38 18 -68 26 -53 13 -85 13 -156 1 -48 -9 -42 12 22 75 l55
54 31 -37 c17 -20 39 -37 49 -37 10 0 22 -4 25 -10 8 -12 149 -13 173 -1 9 5
29 14 45 20 40 16 36 53 -8 86 -38 29 -84 45 -157 52 -27 3 -48 9 -48 13 0 15
121 92 136 86 8 -3 14 -14 14 -24 0 -25 32 -58 82 -83 85 -43 229 -32 236 19
7 45 -114 131 -184 132 -48 0 -60 22 -23 44 24 14 43 16 107 11 94 -8 120 1
178 60 54 57 80 103 65 118 -12 12 -127 20 -151 11z"/>
<path d="M731 3141 c-50 -47 -81 -124 -81 -204 0 -59 3 -71 25 -92 29 -30 35
-31 69 -4 52 41 79 104 84 195 4 78 3 84 -21 108 -33 33 -38 32 -76 -3z"/>
<path d="M2485 3134 c-18 -44 -20 -181 -3 -221 20 -46 59 -83 89 -83 73 0 95
143 39 249 -27 50 -72 91 -101 91 -5 0 -16 -16 -24 -36z"/>
<path d="M10392 2475 c-175 -49 -287 -154 -326 -303 -20 -80 -20 -134 0 -202
43 -145 150 -243 419 -385 61 -32 139 -73 175 -92 131 -70 215 -146 255 -230
32 -66 32 -120 -1 -188 -36 -76 -98 -123 -202 -149 -85 -22 -148 -20 -237 9
-129 43 -218 120 -276 242 -30 62 -43 71 -77 54 -9 -5 -36 -17 -59 -27 l-41
-19 31 -65 c73 -149 177 -236 342 -286 89 -26 314 -25 411 3 145 42 249 115
308 215 63 108 73 267 22 366 -63 124 -162 200 -476 365 -221 116 -309 178
-363 256 -27 39 -32 55 -32 106 0 109 59 186 175 228 61 23 200 23 266 0 123
-41 233 -152 273 -276 7 -21 16 -37 19 -35 4 2 35 17 70 32 68 31 68 30 34
106 -53 118 -138 200 -264 252 -69 29 -81 31 -233 34 -120 3 -173 0 -213 -11z"/>
<path d="M3820 1655 l0 -805 358 0 c309 0 371 3 457 19 120 23 180 38 203 51
9 5 40 19 67 31 77 33 154 88 224 159 134 136 203 292 217 489 17 255 -57 462
-223 622 -69 67 -158 130 -203 144 -14 4 -29 11 -35 15 -16 12 -115 39 -185
51 -137 23 -215 27 -542 28 l-338 1 0 -805z m760 661 c135 -51 202 -93 288
-185 54 -57 132 -196 132 -235 0 -12 5 -27 11 -33 15 -15 26 -197 18 -303 -11
-154 -74 -294 -179 -400 -83 -83 -96 -93 -172 -129 -113 -52 -170 -61 -389
-61 l-199 0 0 686 0 686 223 -5 c175 -3 232 -8 267 -21z"/>
<path d="M5590 1655 l0 -805 561 0 560 0 -3 52 -3 53 -422 3 -423 2 0 354 c0
313 2 355 16 360 9 3 137 6 285 6 l269 0 0 50 0 50 -285 0 -285 0 2 288 3 287
423 3 422 2 0 50 0 50 -560 0 -560 0 0 -805z"/>
<path d="M6920 1656 l0 -806 419 0 c435 0 500 5 588 45 17 8 35 15 40 15 19 0
109 65 152 109 24 25 58 75 74 111 27 58 30 75 30 160 0 83 -4 102 -28 154
-52 110 -134 177 -264 216 -81 25 -83 18 24 83 73 43 130 98 158 152 16 31 22
64 25 143 4 99 3 105 -27 167 -56 113 -158 184 -331 231 -56 15 -122 19 -462
22 l-398 3 0 -805z m734 666 c82 -30 156 -88 186 -148 33 -67 34 -196 3 -264
-44 -93 -130 -151 -250 -169 -76 -12 -353 -15 -390 -5 l-23 6 0 297 c0 164 3
301 8 305 4 5 97 6 207 4 171 -4 209 -8 259 -26z m9 -707 c150 -41 228 -114
261 -244 20 -79 20 -111 -1 -179 -32 -100 -115 -168 -255 -206 -43 -12 -107
-16 -272 -16 l-216 0 0 328 c0 181 3 332 8 337 13 14 411 -3 475 -20z"/>
<path d="M8402 1873 l3 -588 27 -73 c64 -177 183 -291 369 -355 102 -35 232
-51 353 -43 295 21 490 134 580 338 48 108 49 129 53 736 l3 572 -60 0 -60 0
0 -543 c0 -346 -4 -565 -11 -603 -58 -320 -416 -494 -720 -349 -100 47 -216
171 -235 251 -4 16 -12 35 -18 43 -8 10 -13 193 -16 605 l-5 591 -133 3 -133
3 3 -588z"/>
<path d="M11420 1655 l0 -805 135 0 135 0 2 383 3 382 404 0 405 0 0 -380 1
-380 133 -3 132 -3 0 806 0 806 -132 -3 -133 -3 -1 -358 c0 -220 -4 -361 -10
-367 -7 -7 -156 -9 -405 -8 l-394 3 -3 368 -2 367 -135 0 -135 0 0 -805z"/>
<path d="M1437 2400 l-27 -21 0 -432 c1 -343 3 -436 14 -449 11 -16 31 -18
151 -18 193 0 260 19 342 96 72 68 109 215 84 334 -14 67 -67 142 -132 186
-51 34 -153 60 -193 50 -24 -6 -26 -11 -26 -62 0 -75 12 -94 58 -94 65 0 112
-43 137 -127 13 -42 13 -54 0 -94 -22 -65 -65 -105 -126 -118 -56 -12 -84 -13
-116 -5 l-23 6 0 284 0 283 26 26 c24 24 30 25 87 19 179 -19 289 -80 368
-204 55 -87 72 -278 35 -397 -11 -35 -23 -63 -28 -63 -4 0 -8 -6 -8 -13 0 -44
-138 -167 -207 -183 -15 -4 -34 -12 -42 -18 -19 -15 -470 -21 -491 -7 -13 9
-16 82 -20 518 l-5 508 -70 0 -70 0 -3 -591 -2 -592 167 -7 c209 -10 516 7
588 31 186 64 326 241 363 457 34 202 -26 423 -149 546 -40 41 -118 91 -174
113 -53 21 -222 45 -365 53 -108 6 -118 5 -143 -15z"/>
<path d="M455 2154 c-60 -31 -104 -70 -111 -101 -4 -13 -10 -23 -15 -23 -5 0
-9 -11 -9 -25 0 -55 104 -63 188 -14 64 36 114 108 110 154 -3 29 -5 30 -58
32 -43 2 -66 -3 -105 -23z"/>
<path d="M3216 1951 c-3 -4 -18 -11 -34 -14 -35 -7 -116 -77 -131 -115 -7 -16
-11 -53 -9 -83 3 -50 5 -54 30 -57 95 -11 233 165 203 258 -6 20 -49 28 -59
11z"/>
<path d="M486 1921 c-3 -5 -18 -12 -33 -16 -38 -9 -99 -60 -118 -98 -9 -18
-19 -53 -22 -78 -7 -61 13 -75 81 -58 92 23 165 117 166 212 l0 47 -34 0 c-19
0 -37 -4 -40 -9z"/>
<path d="M2730 1883 c0 -58 43 -139 92 -176 35 -26 130 -53 148 -42 16 10 12
80 -7 122 -34 74 -130 142 -200 143 -33 0 -33 -1 -33 -47z"/>
<path d="M461 1643 c-30 -20 -56 -45 -59 -55 -2 -10 -8 -18 -12 -18 -7 0 -24
-59 -36 -130 -5 -27 26 -70 49 -70 22 0 103 56 124 86 30 42 45 101 41 164 -3
50 -5 55 -28 57 -15 2 -46 -12 -79 -34z"/>
<path d="M3100 1558 c-58 -29 -68 -39 -92 -88 -34 -69 -35 -93 -3 -110 29 -15
81 -3 150 36 47 27 104 109 107 156 l3 33 -50 3 c-40 1 -63 -5 -115 -30z"/>
<path d="M1277 753 c-12 -12 -7 -100 8 -144 22 -63 56 -102 115 -132 50 -26
54 -27 71 -11 31 28 26 113 -10 172 -50 80 -154 146 -184 115z"/>
<path d="M1917 727 c-79 -56 -117 -120 -117 -196 0 -61 17 -74 74 -61 50 11
111 71 131 128 15 46 20 118 9 146 -10 25 -47 19 -97 -17z"/>
<path d="M2485 683 c-130 -70 -9 -172 171 -143 77 12 112 27 128 53 16 25 -1
47 -60 79 -42 24 -60 28 -129 27 -54 0 -90 -5 -110 -16z"/>
<path d="M956 514 c-52 -14 -106 -52 -140 -97 -31 -42 -7 -59 91 -65 99 -5
157 10 201 54 44 44 42 82 -8 106 -41 20 -77 21 -144 2z"/>
</g>
</svg>
