<svg width="25" height="25" viewBox="0 0 25 25" fill="none" xmlns="http://www.w3.org/2000/svg">
<path d="M6.49993 11.45L5.49993 12C5.2666 12.1333 5.0166 12.1667 4.74993 12.1C4.48327 12.0333 4.28327 11.8833 4.14994 11.65L2.14993 8.15C2.0166 7.91667 1.98327 7.66667 2.04993 7.4C2.1166 7.13333 2.2666 6.93333 2.49993 6.8L8.24993 3.5H9.99994C10.1499 3.5 10.2708 3.54583 10.3624 3.6375C10.4541 3.72917 10.4999 3.85 10.4999 4V4.5C10.4999 5.05 10.6958 5.52083 11.0874 5.9125C11.4791 6.30417 11.9499 6.5 12.4999 6.5C13.0499 6.5 13.5208 6.30417 13.9124 5.9125C14.3041 5.52083 14.4999 5.05 14.4999 4.5V4C14.4999 3.85 14.5458 3.72917 14.6374 3.6375C14.7291 3.54583 14.8499 3.5 14.9999 3.5H16.7499L22.4999 6.8C22.7333 6.93333 22.8833 7.13333 22.9499 7.4C23.0166 7.66667 22.9833 7.91667 22.8499 8.15L20.8499 11.65C20.7166 11.8833 20.5208 12.0292 20.2624 12.0875C20.0041 12.1458 19.7499 12.1083 19.4999 11.975L18.4999 11.475V20.5C18.4999 20.7833 18.4041 21.0208 18.2124 21.2125C18.0208 21.4042 17.7833 21.5 17.4999 21.5H7.49993C7.2166 21.5 6.9791 21.4042 6.78744 21.2125C6.59577 21.0208 6.49993 20.7833 6.49993 20.5V11.45ZM8.49994 8.1V19.5H16.4999V8.1L19.5999 9.8L20.6499 8.05L16.3499 5.55C16.0999 6.4 15.6291 7.10417 14.9374 7.6625C14.2458 8.22083 13.4333 8.5 12.4999 8.5C11.5666 8.5 10.7541 8.22083 10.0624 7.6625C9.37077 7.10417 8.89994 6.4 8.64994 5.55L4.34994 8.05L5.39993 9.8L8.49994 8.1Z" fill="#C6C6CD"/>
</svg>
