<svg width="33" height="33" viewBox="0 0 33 33" fill="none" xmlns="http://www.w3.org/2000/svg">
<rect width="33" height="33" rx="8" fill="#2F445F"/>
<path d="M6.5 22.5V19.5C6.5 18.4 6.89167 17.4583 7.675 16.675C8.45833 15.8917 9.4 15.5 10.5 15.5H19.5V14.5C19.5 14.2167 19.4042 13.9792 19.2125 13.7875C19.0208 13.5958 18.7833 13.5 18.5 13.5H14.5C14.2167 13.5 13.9792 13.5958 13.7875 13.7875C13.5958 13.9792 13.5 14.2167 13.5 14.5H11.5C11.5 13.6667 11.7917 12.9583 12.375 12.375C12.9583 11.7917 13.6667 11.5 14.5 11.5H18.5C19.3333 11.5 20.0417 11.7917 20.625 12.375C21.2083 12.9583 21.5 13.6667 21.5 14.5V18.5C21.7833 18.5 22.0208 18.4042 22.2125 18.2125C22.4042 18.0208 22.5 17.7833 22.5 17.5V13.5C22.5 12.6667 22.7917 11.9583 23.375 11.375C23.9583 10.7917 24.6667 10.5 25.5 10.5H26.5V12.5H25.5C25.2167 12.5 24.9792 12.5958 24.7875 12.7875C24.5958 12.9792 24.5 13.2167 24.5 13.5V17.5C24.5 18.3333 24.2083 19.0417 23.625 19.625C23.0417 20.2083 22.3333 20.5 21.5 20.5V22.5H6.5ZM8.5 20.5H19.5V17.5H10.5C9.95 17.5 9.47917 17.6958 9.0875 18.0875C8.69583 18.4792 8.5 18.95 8.5 19.5V20.5Z" fill="#C6C6CD"/>
</svg>
