<svg width="33" height="33" viewBox="0 0 33 33" fill="none" xmlns="http://www.w3.org/2000/svg">
<rect width="33" height="33" rx="8" fill="#2F445F"/>
<path d="M25.9 18.75L18.75 25.9C18.55 26.1 18.325 26.25 18.075 26.35C17.825 26.45 17.575 26.5 17.325 26.5C17.075 26.5 16.825 26.45 16.575 26.35C16.325 26.25 16.1 26.1 15.9 25.9L7.075 17.075C6.89167 16.8917 6.75 16.6792 6.65 16.4375C6.55 16.1958 6.5 15.9417 6.5 15.675V8.5C6.5 7.95 6.69583 7.47917 7.0875 7.0875C7.47917 6.69583 7.95 6.5 8.5 6.5H15.675C15.9417 6.5 16.2 6.55417 16.45 6.6625C16.7 6.77083 16.9167 6.91667 17.1 7.1L25.9 15.925C26.1 16.125 26.2458 16.35 26.3375 16.6C26.4292 16.85 26.475 17.1 26.475 17.35C26.475 17.6 26.4292 17.8458 26.3375 18.0875C26.2458 18.3292 26.1 18.55 25.9 18.75ZM17.325 24.5L24.475 17.35L15.65 8.5H8.5V15.65L17.325 24.5ZM11 12.5C11.4167 12.5 11.7708 12.3542 12.0625 12.0625C12.3542 11.7708 12.5 11.4167 12.5 11C12.5 10.5833 12.3542 10.2292 12.0625 9.9375C11.7708 9.64583 11.4167 9.5 11 9.5C10.5833 9.5 10.2292 9.64583 9.9375 9.9375C9.64583 10.2292 9.5 10.5833 9.5 11C9.5 11.4167 9.64583 11.7708 9.9375 12.0625C10.2292 12.3542 10.5833 12.5 11 12.5Z" fill="#C6C6CD"/>
</svg>
