<svg width="17" height="18" viewBox="0 0 17 18" fill="none" xmlns="http://www.w3.org/2000/svg">
<mask id="path-1-outside-1_79_711" maskUnits="userSpaceOnUse" x="-0.987305" y="0" width="18" height="18" fill="black">
<rect fill="white" x="-0.987305" width="18" height="18"/>
<path d="M14.5065 13H2.50646C2.11646 13 1.87646 12.56 2.09646 12.24L4.50646 9V6C4.50646 3.79 6.29646 2 8.50646 2C10.7165 2 12.5065 3.79 12.5065 6V9L14.9165 12.24C15.1365 12.57 14.8965 13 14.5065 13ZM6.50646 14C6.50646 15.1 7.40646 16 8.50646 16C9.60646 16 10.5065 15.1 10.5065 14"/>
</mask>
<path d="M2.09646 12.24L0.49172 11.0463L0.469485 11.0762L0.448378 11.1069L2.09646 12.24ZM4.50646 9L6.1112 10.1937L6.50646 9.66227V9H4.50646ZM12.5065 9H10.5065V9.66227L10.9017 10.1937L12.5065 9ZM14.9165 12.24L16.5806 11.1306L16.552 11.0877L16.5212 11.0463L14.9165 12.24ZM14.5065 11H2.50646V15H14.5065V11ZM2.50646 11C3.6569 11 4.47622 12.3088 3.74455 13.3731L0.448378 11.1069C-0.723296 12.8112 0.576023 15 2.50646 15V11ZM3.7012 13.4337L6.1112 10.1937L2.90172 7.80635L0.49172 11.0463L3.7012 13.4337ZM6.50646 9V6H2.50646V9H6.50646ZM6.50646 6C6.50646 4.89457 7.40103 4 8.50646 4V0C5.19189 0 2.50646 2.68543 2.50646 6H6.50646ZM8.50646 4C9.61189 4 10.5065 4.89457 10.5065 6H14.5065C14.5065 2.68543 11.821 0 8.50646 0V4ZM10.5065 6V9H14.5065V6H10.5065ZM10.9017 10.1937L13.3117 13.4337L16.5212 11.0463L14.1112 7.80635L10.9017 10.1937ZM13.2524 13.3494C12.5596 12.3102 13.3474 11 14.5065 11V15C16.4455 15 17.7133 12.8298 16.5806 11.1306L13.2524 13.3494ZM4.50646 14C4.50646 16.2046 6.30189 18 8.50646 18V14H4.50646ZM8.50646 18C10.711 18 12.5065 16.2046 12.5065 14H8.50646V18Z" fill="#EBEBF0" mask="url(#path-1-outside-1_79_711)"/>
</svg>
