<svg width="20" height="20" viewBox="0 0 20 20" fill="none" xmlns="http://www.w3.org/2000/svg">
<path d="M8.61923 12.3333V11.4653C8.61923 11.1551 8.68472 10.8819 8.81572 10.6458C8.94671 10.4097 9.11045 10.1944 9.30695 10C9.50889 9.80556 9.72449 9.625 9.95373 9.45833C10.1884 9.28704 10.404 9.11343 10.6005 8.9375C10.8025 8.75694 10.9689 8.56713 11.0999 8.36806C11.2309 8.16898 11.2964 7.94213 11.2964 7.6875C11.2964 7.49306 11.2637 7.31019 11.1982 7.13889C11.1381 6.96759 11.0426 6.81713 10.9116 6.6875C10.7861 6.55787 10.6251 6.45602 10.4286 6.38194C10.2375 6.30787 10.0083 6.27083 9.74086 6.27083C9.49525 6.27083 9.26874 6.32407 9.06133 6.43056C8.85392 6.53241 8.58109 6.74769 8.42827 6.9375C8.27544 7.12269 8.22833 7.24074 8.13554 7.5C8.04275 7.75926 8.00519 8.08102 7.98882 8.39583H6.16309C6.18492 7.8912 6.26996 7.29167 6.45554 6.875C6.64111 6.45833 6.83897 6.1713 7.15554 5.875C7.47211 5.57407 7.72683 5.3912 8.15256 5.22917C8.57829 5.0625 9.23326 5 9.74086 5C10.3631 5 10.8898 5.07639 11.321 5.22917C11.7576 5.38194 12.1124 5.58565 12.3853 5.84028C12.6582 6.09028 12.8547 6.37731 12.9748 6.70139C13.1003 7.02083 13.1631 7.34954 13.1631 7.6875C13.1631 7.97454 13.103 8.23611 12.983 8.47222C12.8629 8.7037 12.7128 8.9213 12.5327 9.125C12.3526 9.3287 12.1561 9.52315 11.9432 9.70833C11.7303 9.88889 11.5338 10.0741 11.3537 10.2639C11.1736 10.4491 11.0235 10.6435 10.9034 10.8472C10.7834 11.0509 10.7233 11.2731 10.7233 11.5139V12.3333H8.61923ZM10.7233 13.3542V15H8.61923V13.3542H10.7233Z" fill="#EBEBF0"/>
<circle cx="10" cy="10" r="9" stroke="#EBEBF0" stroke-width="2"/>
</svg>
