<svg width="2880" height="512" viewBox="0 0 2880 512" fill="none" xmlns="http://www.w3.org/2000/svg">
<g clip-path="url(#clip0_405_1083)">
<path d="M1 211.469C4.9748 211.664 8.98399 212.173 12.9137 213.042C16.1598 213.759 19.3246 214.863 22.4874 215.911C22.8232 216.022 22.9037 216.905 23.2375 217.785C31.4985 217.963 34.9034 224.988 38.8051 231.65C38.8051 224.731 38.8051 217.996 38.8051 211.526C30.1521 209.487 24.0536 205.639 18.5391 198.079C10.2846 186.763 11.2156 174.783 11.024 162.464C10.9581 158.23 15.5645 156.003 21.4552 157.678C28.9892 159.819 34.1941 165.311 40.2198 169.413C43.1138 171.383 43.4903 177.059 44.9909 181.063C45.4283 182.23 45.8103 183.418 46.3445 184.963C48.2416 178.025 50.0099 171.559 51.8833 164.709C44.8505 163.808 41.8828 158.572 38.1436 153.878C34.8122 149.697 33.2725 145.323 32.9137 140.147C32.737 137.599 31.4821 135.145 31.0255 132.593C29.6531 124.922 32.311 117.686 34.2974 110.551C34.8609 108.527 39.0159 106.248 41.4527 106.325C44.3636 106.417 47.4438 108.58 50.0012 110.458C52.9263 112.606 55.9154 115.057 57.8881 118.032C62.1206 124.414 65.0818 131.401 63.8794 139.489C64.3024 139.724 64.7254 139.958 65.1484 140.192C69.4148 133.869 73.6813 127.546 78.023 121.112C74.4497 121.184 70.0534 121.404 67.9653 116.698C66.2562 112.846 64.5901 108.975 63.0586 105.464C63.1811 105.223 62.8087 105.956 62.221 107.112C62.221 97.5233 62.221 88.5198 62.221 78.4316C62.8491 80.1224 63.0947 80.7836 63.5147 81.9142C63.737 81.4336 63.9128 81.2266 63.9193 81.0144C64.1651 73.0483 68.3686 66.9928 73.9123 61.9487C75.1061 60.8624 78.7814 61.2025 80.5077 62.2342C86.963 66.0921 89.4246 72.7705 90.9104 79.6715C92.5975 87.5071 93.764 95.4548 95.0808 102.922C99.867 97.5635 105.251 91.5354 110.635 85.5073C110.955 86.0502 111.275 86.5932 111.594 87.1362C108.868 85.6677 105.417 84.79 103.611 82.5723C101.619 80.1253 101.099 76.4619 100.011 73.303C99.3988 71.5271 98.8706 69.7157 98.4294 67.8901C98.163 66.788 97.869 65.5847 98.0454 64.5015C98.9462 58.9703 99.5554 53.332 101.148 47.9941C102.223 44.3883 104.415 40.9558 106.734 37.9244C109.165 34.7454 112.324 32.1173 115.201 29.2856C118.737 25.8059 122.904 26.2998 126.175 28.9486C130.038 32.076 133.576 35.7689 133.091 41.7113C132.673 46.8306 133.432 52.0591 132.857 57.1475C132.477 60.5138 130.647 63.7133 129.491 66.9963C128.836 68.8557 128.231 70.7326 127.191 73.8316C136.241 67.9347 143.977 62.8937 151.726 57.8445C144.54 55.5163 143.237 49.7078 142.818 42.6002C142.306 33.8879 144.488 25.901 149.241 19.2423C153.925 12.6798 159.797 6.57688 167.537 3.20208C173.259 0.707032 177.929 3.73559 177.985 9.71752C178.068 18.6314 178.006 27.5466 178.006 37.0199C183.059 30.013 188.415 24.9487 196.737 22.7004C202.945 21.023 209.005 18.2794 215.441 18.1934C219.634 18.1374 224.016 19.6016 228.011 21.1608C231.528 22.5336 232.119 26.4899 230.688 29.2442C228.689 33.0907 225.561 36.4071 222.634 39.6992C219.556 43.1611 216.035 46.226 212.907 49.647C208.754 54.1891 203.131 54.5057 197.716 54.8471C193.34 55.1231 188.898 54.1467 184.48 54.0778C181.445 54.0304 178.4 54.5856 175.277 55.8198C180.645 57.5887 186.787 58.2621 191.198 61.383C197.834 66.0779 205.127 70.7855 208.593 78.638C209.371 80.4023 207.786 84.0926 206.146 85.7981C204.438 87.575 201.417 88.6697 198.851 88.9411C188.072 90.0812 177.113 92.5285 166.859 86.4463C166.229 86.0728 165.358 86.1066 164.35 85.8997C166.498 88.3507 168.307 90.6203 170.329 92.6802C174.689 97.1209 173.789 100.813 168.718 104.245C163.266 107.934 157.467 109.138 151.203 110.4C147.667 111.112 144.14 112.275 140.577 111.889C137.235 111.527 134.013 110.121 130.709 109.293C129.647 109.027 128.49 109.14 127.212 109.831C130.235 110.779 133.428 111.374 136.246 112.743C143.755 116.391 144.539 123.503 138.017 128.438C134.402 131.173 130.703 133.996 126.622 135.86C122.302 137.833 117.484 138.716 113.055 140.024C112.843 139.72 113.202 140.234 114.455 142.025C106.362 140.827 99.3266 140.011 92.4082 138.617C90.4362 138.219 88.4839 136.409 87.0933 134.764C85.2215 132.55 82.3828 132.244 81.0551 134.624C78.8539 138.568 76.6487 142.511 74.0931 147.084C83.3597 141.706 93.2989 141.51 103.3 142.041C106.837 142.229 110.671 142.22 113.795 143.6C119.032 145.915 119.806 151.157 116.162 156.245C111.622 162.582 105.994 167.346 99.0087 171.359C89.0282 177.092 78.833 177.14 68.3561 175.731C65.7003 175.373 63.4803 171.777 61.902 170.403C59.5962 177.303 57.0864 184.813 54.1913 193.477C58.4343 189.693 61.3365 186.354 64.9247 184.113C68.6547 181.784 73.0479 180.516 76.932 178.877C77.1978 179.238 76.8072 178.707 76.2821 177.992C82.3908 177.992 88.2104 177.974 94.0297 177.998C99.1274 178.019 100.833 181.258 100.471 186.31C99.8151 195.463 94.3068 201.893 88.4494 207.445C84.9335 210.778 80.6181 214.795 74.7519 215.09C73.2867 215.163 71.8835 216.354 70.4403 217.006C64.0164 219.908 57.9722 219.393 52.2965 215.07C51.7348 214.642 50.8353 214.658 50.1009 214.47C50.1009 221.529 50.1009 228.481 50.1009 234.712C54.5468 230.491 58.9023 225.418 64.198 221.676C67.4307 219.392 72.1393 219.247 76.1287 217.966C78.7054 217.138 81.125 215.353 83.7128 215.13C88.5782 214.71 91.2548 217.417 90.936 222.187C90.5471 228.007 90.755 234.233 88.6642 239.468C86.6709 244.459 82.1223 248.459 78.5333 252.758C77.8001 253.636 76.3386 253.906 75.2128 254.457C75.6982 255.128 76.1835 255.799 76.6689 256.47C79.5417 255.499 82.4144 254.528 85.188 253.591C92.7119 254.744 91.176 262.169 93.7543 266.771C94.6407 268.353 92.5846 271.533 91.9827 274.01C90.9253 278.362 90.1485 282.793 88.8585 287.072C88.25 289.09 86.725 290.832 85.519 292.861C90.5555 291.959 94.899 291.18 98.5199 290.531C104.922 297.843 102.605 305.818 102.985 313.34C103.371 320.984 103.504 328.611 98.6564 334.81C102.416 331.393 105.912 327.606 110.017 324.67C113.558 322.137 118.928 325.332 120.107 329.506C121.146 333.182 123.125 336.585 124.547 340.165C124.953 341.188 124.98 342.406 124.988 343.537C125.03 349.035 125.694 354.642 124.85 360.008C123.469 368.784 121.467 377.614 114.216 381.405C116.855 384.723 119.865 388.509 123.339 392.755C124.14 393.35 124.476 393.485 124.813 393.62C124.568 393.056 124.323 392.491 124.078 391.927C124.72 382.116 125.147 372.283 126.092 362.501C126.578 357.466 137.745 352.177 141.35 355.318C144.896 358.407 148.332 362.1 150.467 366.226C154.254 373.541 156.302 381.596 155.916 389.953C155.747 393.609 154.93 397.302 153.908 400.834C152.98 404.037 151.375 407.043 150.174 409.885C153.424 411.82 156.64 413.735 160.356 415.369C162.432 415.961 164.114 416.69 165.55 417.753C166.75 418.641 168.484 419.931 168.469 421.022C168.455 422.125 166.421 423.092 165.56 424.32C164.545 425.767 163.84 427.43 162.991 429.384C160.451 433.592 157.289 433.981 154.148 430.516C156.741 430.155 159.137 430.155 162.442 430.155C159.809 428.841 158.072 428.094 156.454 427.145C151.348 424.152 146.324 421.017 141.164 418.122C140.482 417.74 138.688 418.088 138.28 418.689C136.657 421.08 135.809 424.118 133.863 426.135C131.568 428.514 128.675 430.96 125.608 431.801C121.104 433.037 116.216 432.877 111.545 433.307C111.828 433.727 112.2 434.281 113.498 436.211C107.811 434.959 103.394 433.365 98.9116 433.15C92.7272 432.853 87.6183 431.339 82.6925 427.19C77.5551 422.864 76.1196 418.121 81.0402 413.643C84.6535 410.354 88.6488 406.918 93.1101 405.272C98.6109 403.244 104.743 402.559 110.66 402.178C113.651 401.985 116.767 403.739 120.515 404.809C113.204 398.512 106.534 392.767 100.44 387.519C97.7245 390.253 94.8896 395.513 90.9444 396.55C83.9737 398.383 76.2954 398.197 68.9742 397.781C64.2886 397.515 59.2794 396.09 55.1997 393.791C50.3937 391.084 45.9008 387.325 42.3377 383.119C40.5842 381.049 39.9647 376.385 41.0706 373.885C43.0494 369.411 48.1479 367.996 52.7381 367.088C56.7164 366.3 60.8595 366.021 64.9233 366.068C70.4686 366.133 76.0077 366.721 81.626 367.09C81.372 365.89 81.4371 364.762 80.9291 364.035C78.0121 359.86 75.0124 355.738 71.8856 351.719C71.4923 351.213 69.8671 350.982 69.3525 351.359C63.4911 355.659 57.0205 356.647 50.1252 354.954C43.9572 353.44 37.7286 351.997 31.7892 349.809C29.1812 348.849 26.9542 346.353 25.0354 344.138C22.0174 340.653 19.445 336.786 16.6133 333.135C12.6401 328.013 14.0042 322.345 20.4383 321.176C30.5633 319.335 40.9223 318.191 50.9136 322.435C52.8352 323.251 54.7514 324.08 56.4244 324.798C54.2027 318.528 52.0387 312.42 49.8829 306.336C49.0169 307.074 48.515 307.881 47.9529 307.925C36.5198 308.826 25.1544 308.573 16.1281 300.287C9.94056 294.607 4.97414 287.805 2.91656 279.326C2.85609 279.077 1.6643 279.103 1 279C1 275.639 1 272.277 1.38027 268.565C4.06265 268.14 6.38621 267.833 8.66271 268.041C14.4682 268.571 20.2874 269.124 26.0311 270.086C28.9227 270.57 31.88 271.585 34.4138 273.043C37.4396 274.785 40.044 277.259 42.0317 278.797C42.0317 275.227 41.8962 271.004 42.0709 266.794C42.2368 262.795 40.3794 260.971 36.5962 260.073C30.1129 258.535 23.7554 257.276 17.798 253.306C10.7547 248.613 5.75656 243.103 3.01331 235.268C2.91217 234.979 1.69635 235.08 1 235C1 227.312 1 219.625 1 211.469ZM62.4904 261C58.4587 263.171 54.3825 264.178 49.4073 260.636C50.798 269.556 52.0442 277.55 53.2905 285.543C56.5041 276.526 60.2989 267.957 68.9175 261C66.165 261 64.7591 261 62.4904 261ZM69.9953 326.886C69.4229 316.941 72.67 308.29 79.8512 299.842C72.8861 302.072 68.7716 309.187 61.0679 306.31C61.0679 307.718 60.6694 309.177 61.134 310.268C63.7093 316.317 66.4925 322.277 69.2321 328.254C69.2643 328.325 69.6812 328.274 69.8788 328.188C69.9659 328.15 69.9535 327.883 69.9953 326.886ZM97.94 339.505C97.94 338.866 97.94 338.228 97.94 338.287C93.0403 341.85 87.949 345.553 83.0346 349.128C85.8913 352.735 89.343 357.094 91.9612 360.401C93.6642 354.054 95.5413 347.06 97.94 339.505ZM104.222 107.332C111.3 107.65 118.377 107.968 124.988 108.264C121.377 104.706 117.773 101.154 114.025 97.4609C111.095 100.421 107.949 103.599 104.222 107.332ZM145.564 74.0068C143.101 75.4766 140.639 76.9465 138.678 78.1172C145.306 79.3527 151.934 80.5881 157.574 81.6394C155.186 77.9852 152.529 73.9213 149.956 69.986C149.001 71.0381 147.672 72.5028 145.564 74.0068ZM84.0168 296.283C83.5725 296.169 83.1319 296.023 82.6804 295.97C82.601 295.961 82.4763 296.341 82.3725 296.541C82.758 296.667 83.1435 296.793 84.0168 296.283Z" fill="#FBFBFB"/>
<path d="M300.454 513C298.394 508.56 297.047 504.003 295.121 499.707C292.286 493.385 289.842 486.654 285.781 481.171C279.402 472.556 272.839 463.98 261.397 460.626C257.47 459.474 254.52 458.255 250.987 460.49C247.594 462.638 244.231 464.832 240.2 466.845C237.163 462.375 235.57 468.575 231.663 466.376C236.428 462.231 240.683 458.53 244.764 454.981C244.283 453.269 243.873 451.81 243.464 450.351C244.933 450.169 246.408 450.017 247.871 449.793C248.659 449.672 249.428 449.262 250.205 449.263C255.954 449.268 261.702 449.344 269.05 449.413C264.368 454.596 268.052 455.207 270.142 456.53C271.587 457.445 273.768 457.916 274.434 459.2C276.278 462.75 278.655 463.536 282.474 461.978C283.809 462.546 284.782 463.094 286.758 464.206C285.275 459.72 284.137 456.278 283 452.425C281.852 445.365 290.058 449.84 290.928 445.406C291.03 444.885 292.476 444.316 293.304 444.307C295.999 444.279 298.697 444.501 301.398 444.627C301.394 449.972 301.947 450.403 307.341 449.074C308.615 448.761 309.86 448.332 311.118 447.956C320.585 449.035 326.811 455.042 331.955 462.25C335.193 466.787 338.102 471.616 338.106 477.665C338.108 480.704 336.797 481.924 334.202 481.966C327.048 482.08 319.832 482.555 312.759 481.789C308.856 481.366 305.199 478.716 301.415 477.109C300.261 476.618 299.053 476.257 297.448 476.118C306.685 486.482 308.421 499.269 309.968 512.565C306.969 513 303.939 513 300.454 513Z" fill="#F9F9F9"/>
<path d="M282.114 461.958C278.655 463.536 276.278 462.75 274.434 459.2C273.768 457.916 271.587 457.445 270.142 456.531C268.052 455.207 264.368 454.596 269.05 449.413C261.702 449.344 255.954 449.268 250.205 449.263C249.428 449.262 248.659 449.672 247.871 449.793C246.408 450.017 244.933 450.169 243.463 450.351C243.873 451.81 244.283 453.269 244.764 454.981C240.683 458.531 236.428 462.231 231.663 466.376C235.57 468.575 237.163 462.375 239.831 466.868C235.68 472.038 231.242 477.024 226.361 481.709C225.009 481.337 224.1 481.267 223.19 481.196C224.07 482.131 224.951 483.066 225.831 484.002C224.508 486.335 223.185 488.668 221.12 491.067C218.094 492.092 215.809 493.052 213.525 494.011C213.495 494.349 213.465 494.686 213.436 495.023C215.572 495.349 217.709 495.675 219.845 496.001C218.934 497.455 218.022 498.909 216.584 500.726C215.44 501.309 214.828 501.543 214.206 501.748C212.909 502.175 211.606 502.588 210.306 503.006C211.569 504.364 212.832 505.722 214.095 507.08C213.398 508.802 212.702 510.524 212.002 512.623C209.629 513 207.259 513 204.444 513C203.212 501.49 207.086 491.301 213.398 481.335C215.144 481.19 216.365 481.363 217.586 481.537C217.814 481.214 218.042 480.891 218.269 480.568C217.47 479.697 216.671 478.827 215.872 477.956C216.215 477.51 216.557 477.063 217.268 476.246C217.677 475.337 217.717 474.799 217.756 474.26C217.318 474.578 216.879 474.896 216.44 475.213C212.407 477.466 208.375 479.719 204.159 481.485C207.2 476.909 209.901 472.142 216.088 472.014C220.623 471.92 221.876 469.317 221.617 465.133C221.214 458.625 223.707 455.012 228.913 454.403C227.391 458.307 225.754 461.792 224.243 465.33C224.08 465.712 224.649 466.406 225.105 466.891C225.627 466.681 225.846 466.461 226.32 466.027C230.145 462.58 233.641 459.273 237.011 456.084C235.071 455.184 232.535 454.009 230.076 452.496C231.729 451.202 233.306 450.246 234.851 449.308C232.913 447.587 231.457 446.294 230.306 444.868C231.451 444.475 232.289 444.214 233.127 443.952C233.678 444.286 234.208 444.87 234.783 444.917C243.697 445.651 252.615 446.809 261.535 446.824C267.579 446.835 273.626 445.218 280.097 444.267C272.505 423.997 281.701 410.006 298.605 399.35C299.984 412.632 297.153 425.856 301.121 438.34C303.673 437.365 305.401 436.705 307.129 436.044C307.584 436.312 308.383 436.877 308.444 436.806C311.596 433.15 316.298 434.39 320.579 433.501C319.577 438.732 312.974 441.024 306.083 438.543C306.444 440.408 306.277 442.295 307.135 443.127C307.845 443.816 310.126 443.797 311.078 443.154C313.985 441.191 314.86 443.32 316.046 445.116C314.444 445.832 312.842 446.548 311.179 447.61C309.86 448.332 308.615 448.761 307.341 449.075C301.947 450.403 301.394 449.972 301.398 444.627C298.697 444.501 295.999 444.279 293.304 444.308C292.476 444.316 291.03 444.885 290.928 445.406C290.058 449.84 281.852 445.365 282.6 452.502C280.202 453.779 278.205 454.569 276.73 455.152C278.696 457.637 280.405 459.798 282.114 461.958Z" fill="#FBFBFB"/>
<path d="M1 235.469C1.69635 235.08 2.91217 234.979 3.01331 235.268C5.75656 243.103 10.7547 248.613 17.798 253.306C23.7554 257.276 30.1129 258.535 36.5962 260.073C40.3794 260.971 42.2368 262.795 42.0709 266.794C41.8962 271.004 42.0317 275.227 42.0317 278.797C40.044 277.259 37.4396 274.785 34.4138 273.043C31.88 271.585 28.9227 270.57 26.0311 270.086C20.2874 269.124 14.4682 268.571 8.6627 268.041C6.38621 267.833 4.06265 268.14 1.38026 268.106C1 257.312 1 246.625 1 235.469Z" fill="black"/>
<path d="M762.151 87.9859C809.103 87.9853 855.583 87.6443 902.046 88.3559C908.908 88.461 916.258 88.9845 923.047 90.3445C929.412 91.6195 935.552 93.7998 942.216 94.1359C946.297 94.3417 950.306 95.9911 953.885 96.8778C953.902 96.8699 953.153 97.2214 952.231 97.6545C957.002 98.6662 961.542 99.6285 966.252 100.627C966.199 100.692 965.865 101.105 966.121 100.788C973.435 104.395 981.05 107.92 988.434 111.875C993.096 114.373 997.647 117.212 1001.83 120.439C1008.06 125.244 1014.01 130.425 1019.9 135.647C1023.42 138.767 1026.9 142.028 1029.86 145.657C1034.8 151.692 1040.15 157.635 1043.75 164.449C1046.57 169.791 1050.99 174.279 1052.24 180.673C1052.93 184.199 1056.21 187.143 1057.79 190.595C1058.96 193.156 1059.22 196.121 1059.97 198.887C1060.89 202.32 1061.88 205.733 1062.82 209.056C1062.71 209.131 1063.22 208.774 1063.93 208.272C1063.93 212.417 1063.93 216.362 1063.93 221.27C1064.78 219.745 1065.19 219.009 1066.01 217.524C1066.01 221.056 1065.42 223.874 1066.11 226.337C1070.82 243.243 1066.04 260.442 1068.65 278.09C1067.29 277.209 1066.75 276.86 1065.91 276.312C1065.91 280.188 1065.91 283.859 1065.91 287.53C1065.7 287.548 1065.49 287.566 1065.28 287.584C1065.1 286.582 1064.93 285.581 1064.7 284.283C1064.33 284.736 1064.09 284.891 1064.07 285.071C1063.36 291.112 1064.04 297.831 1061.52 302.987C1059.51 307.122 1059.43 312.019 1056.24 315.649C1054.78 317.319 1056.17 319.746 1054.32 322.179C1050.38 327.348 1047.84 333.623 1045.01 339.576C1040.8 348.418 1033.63 355.02 1028.04 362.787C1020.3 373.547 1009.13 380.355 999.704 389.119C995.166 393.339 988.351 395.092 982.604 398.035C979.711 399.518 976.977 401.327 974.037 402.699C969.948 404.608 965.761 406.316 961.565 407.983C956.629 409.944 951.672 411.867 946.652 413.597C945.04 414.153 943.2 414.045 941.432 414.245C941.826 414.728 942.181 415.161 942.561 415.627C942.317 415.753 942.092 415.957 941.85 415.981C934.835 416.667 927.794 417.154 920.809 418.064C915.706 418.729 910.676 419.946 906.273 420.791C906.483 420.844 907.573 421.116 908.662 421.389C908.631 421.558 908.599 421.727 908.568 421.895C904.616 421.895 900.664 421.895 896.711 421.896C851.059 421.901 805.407 421.885 759.754 421.952C755.795 421.958 753.961 420.424 753.965 416.416C754.069 317.324 754.144 218.233 754.223 119.141C754.229 111.31 754.274 103.479 754.211 95.6482C754.152 88.2956 754.395 87.9918 762.151 87.9859ZM944.544 368.987C954.169 364.921 960.702 357.149 966.89 349.329C970.958 344.188 976.524 339.682 977.284 332.404C977.603 332.459 978.142 332.653 978.21 332.546C980.494 328.983 982.885 325.474 984.89 321.757C985.528 320.572 984.521 318.277 985.296 317.426C989.445 312.866 991.253 307.626 990.997 301.558C990.968 300.861 991.068 300.158 991.166 298.435C991.909 300.147 992.219 300.863 992.845 302.304C993.881 294.837 994.803 288.189 995.696 281.747C995.901 282.461 996.202 283.508 996.862 285.811C996.862 264.502 996.862 244.551 996.862 223.707C996.1 225.261 995.762 225.95 995.568 226.345C994.61 219.797 993.642 213.183 992.597 206.042C992.118 207.533 991.797 208.531 991.722 208.763C990.905 205.481 990.266 201.659 988.986 198.066C987.061 192.664 985.327 187.025 982.344 182.211C978.567 176.117 974.439 170.053 970.183 164.435C963.923 156.173 955.557 149.226 947.184 142.92C937.766 135.828 927.524 130.081 915.838 126.642C907.789 124.274 900.075 121.085 891.426 120.82C891.78 120.278 892.136 119.734 892.762 118.776C866.498 118.776 840.526 118.776 814.993 118.776C814.993 209.572 814.993 300.193 814.993 391.003C816.883 391.003 818.194 391.047 819.501 390.997C845.839 389.981 872.287 393.197 898.535 388.958C901.891 388.416 905.28 387.783 908.489 386.703C913.492 385.017 918.373 382.957 923.27 380.967C925.971 379.869 928.649 378.691 931.243 377.365C933.816 376.051 936.23 373.427 938.789 373.326C942.25 373.191 942.665 371.106 944.544 368.987ZM998.999 239.86C998.925 238.734 998.85 237.608 998.775 236.483C998.609 236.488 998.442 236.493 998.276 236.498C998.276 248.176 998.276 259.853 998.276 271.53C998.517 271.533 998.758 271.535 998.999 271.538C998.999 261.287 998.999 251.036 998.999 239.86Z" fill="#F7F7F7"/>
<path d="M1609.63 123.266C1617.55 130.762 1621.64 140.239 1625.69 149.606C1627.31 153.344 1627.18 157.818 1628 161.926C1628.53 164.591 1630.05 167.248 1629.87 169.826C1629.42 176.607 1628.5 183.379 1627.35 190.083C1626.6 194.428 1625.58 198.843 1623.85 202.874C1621.49 208.384 1618.89 213.955 1615.39 218.762C1612.1 223.271 1607.79 227.192 1603.4 230.698C1597.82 235.147 1591.74 238.984 1585.79 242.952C1582.78 244.954 1579.58 246.664 1577.03 248.179C1584.15 250.527 1591.67 253.003 1599.41 255.555C1599.23 255.757 1598.85 256.18 1598.46 256.603C1608.11 259.75 1615.85 265.501 1622.88 272.843C1635.4 285.908 1642.09 301.096 1644.2 319.075C1645.65 331.389 1644.13 343.202 1641.75 354.99C1640.68 360.303 1638.05 365.547 1635.11 370.181C1630.53 377.411 1625.42 384.381 1619.86 390.885C1617.24 393.949 1613.05 395.675 1609.57 398.007C1607.52 399.381 1607.09 401.969 1604.13 403.068C1597.92 405.375 1592.24 409.07 1586.24 411.984C1579.22 415.393 1571.94 417.739 1563.98 418.128C1560.2 418.314 1556.48 419.896 1552.34 420.945C1552.42 420.978 1552.94 421.193 1554.95 422.016C1552.43 422.016 1551.25 422.016 1550.08 422.016C1497.43 422.013 1444.79 422.011 1392.14 422.006C1388.66 422.006 1385.16 421.772 1381.69 422.015C1378.04 422.271 1377.39 419.996 1377.01 417.268C1376.96 416.941 1377 416.603 1377 416.269C1377 307.136 1377 198.002 1377 87.9865C1379.24 87.9865 1381.46 87.9854 1383.68 87.9867C1433.15 88.0155 1482.63 87.8164 1532.1 88.4256C1537.07 88.4867 1542.39 89.8807 1547.66 90.1411C1550.26 90.2696 1552.78 91.9531 1555.17 92.869C1555.25 92.7635 1554.87 93.2846 1554.89 93.2571C1576.31 97.1493 1594.32 107.269 1609.63 123.266ZM1526.56 266.011C1515.43 264.679 1504.33 262.717 1493.16 262.174C1479.36 261.504 1465.51 261.95 1451.68 262.059C1448.27 262.086 1444.55 263.684 1441.51 262.775C1436.47 261.268 1435.95 263.08 1435.96 267.29C1436.05 307.274 1436.01 347.257 1436.03 387.241C1436.03 388.493 1436.22 389.745 1436.34 391.226C1445.73 391.226 1454.73 391.357 1463.71 391.2C1484.23 390.841 1504.83 392.628 1525.23 388.983C1527.13 388.643 1528.87 388.581 1530.97 387.48C1535.95 384.859 1541.98 384.218 1547.61 382.772C1547.16 382.222 1546.76 381.723 1546.89 381.885C1550.79 380.172 1555.33 379.208 1558.51 376.586C1570.63 366.597 1580.35 355.206 1580.14 337.956C1579.95 322.304 1581 306.543 1570.95 293.029C1566.56 287.122 1561.98 281.352 1555.11 277.937C1550.61 275.703 1546.46 272.717 1541.87 270.733C1537.24 268.732 1532.26 267.553 1526.56 266.011ZM1436.01 188.5C1436.01 204.25 1436.01 220.001 1436.01 235.986C1459.17 235.986 1481.8 236.256 1504.41 235.829C1511.61 235.693 1518.99 234.409 1525.89 232.345C1531.7 230.61 1536.73 226.428 1542.47 224.32C1550.45 221.386 1555 214.748 1559.37 208.59C1562.98 203.517 1565.07 196.739 1565.89 190.463C1567.09 181.204 1567.51 171.622 1566.54 162.361C1565.5 152.543 1560.12 144.146 1552.79 137.452C1548.6 133.624 1544.06 129.964 1539.12 127.224C1535.17 125.027 1530.21 124.716 1526 122.866C1520.85 120.6 1515.76 118.646 1510.04 118.93C1508.52 119.005 1507.01 118.942 1505.49 118.942C1505.49 118.751 1505.48 118.56 1505.48 118.369C1506.47 118.064 1507.47 117.76 1509.13 117.251C1484.29 117.251 1460.24 117.251 1436.01 117.251C1436.01 140.906 1436.01 164.203 1436.01 188.5Z" fill="#F7F7F7"/>
<path d="M2497.98 317C2497.98 308.502 2497.85 300.501 2498.02 292.506C2498.18 284.755 2498.57 277.005 2499.02 269.264C2499.21 265.97 2497.93 264.932 2494.69 264.936C2443.71 265.007 2392.72 264.986 2341.33 264.986C2341.21 266.283 2340.98 267.537 2340.98 268.792C2340.97 316.447 2341.05 364.103 2340.85 411.757C2340.84 414.547 2344.66 418.542 2339.23 420.46C2337.88 420.939 2336.53 421.824 2335.17 421.832C2318.03 421.926 2300.88 421.894 2282.56 421.894C2282.39 417.85 2282.07 413.762 2282.06 409.673C2282.02 309.197 2282 208.721 2281.99 108.245C2281.98 101.577 2281.99 94.9081 2281.99 87.9858C2301.44 87.9858 2319.42 87.9601 2337.39 88.0116C2340.33 88.02 2342.47 91.8025 2342.02 95.5986C2341.6 99.1619 2341.03 102.742 2341.03 106.316C2340.95 148.472 2340.97 190.629 2340.98 232.786C2340.98 234.09 2341.08 235.395 2341.13 236.499C2393.7 236.499 2446.02 236.499 2498.2 236.499C2498.48 231.33 2499 226.586 2498.96 221.847C2498.7 192.936 2498.27 164.026 2498.01 135.114C2497.88 121.453 2498.13 107.787 2497.93 94.1267C2497.86 89.5634 2499.14 87.8078 2504.02 87.8945C2520.01 88.1787 2536.01 88.0709 2552.01 87.9618C2556.23 87.9329 2558.04 89.6308 2558.01 93.8649C2557.9 107.861 2557.93 121.858 2557.93 135.855C2557.94 228.664 2557.96 321.473 2557.97 414.283C2557.98 421.931 2557.88 421.951 2550.34 421.933C2534.86 421.897 2519.39 421.966 2503.91 421.953C2499.99 421.949 2497.97 420.131 2497.98 415.968C2498.02 383.146 2497.99 350.323 2497.98 317Z" fill="#F7F7F7"/>
<path d="M316.449 445.059C314.86 443.32 313.985 441.191 311.078 443.154C310.126 443.797 307.845 443.816 307.135 443.127C306.277 442.295 306.444 440.408 306.083 438.543C312.974 441.024 319.577 438.732 320.997 433.579C326.902 430.263 320.812 426.983 321.142 423.797C321.708 418.338 320.778 412.72 321.392 407.272C321.865 403.067 323.333 398.831 325.128 394.967C326.425 392.177 328.745 389.717 331.04 387.571C334.498 384.339 338.227 381.366 342.044 378.559C344.694 376.61 349.493 378.637 351.664 381.056C356.793 386.77 354.89 393.512 354.851 399.853C354.822 404.552 357.129 409.967 352.124 413.907C351.561 414.35 352.048 416.125 352.048 417.36C354.635 415.945 356.958 414.221 359.566 413.351C363.934 411.895 364.373 410.692 362.279 406.521C358.465 398.921 357.44 390.627 358.119 382.304C358.728 374.842 362.012 368.133 365.964 361.804C368.667 357.476 376.967 353.532 381.43 355.172C383.183 355.817 384.943 358.192 385.464 360.113C386.978 365.698 388.253 371.409 388.885 377.152C389.44 382.202 389.001 387.362 389.001 394.043C391.608 391.189 393.328 389.29 395.067 387.408C396.67 385.673 398.294 383.958 400.179 381.945C394.104 378.186 391.731 372.353 389.332 365.678C387.329 360.106 386.108 354.643 387.277 349.559C389.109 341.593 390.399 333.06 396.09 326.497C399.4 322.681 404.704 323.056 408.565 327.094C409.598 328.174 410.475 329.405 411.834 330.446C409.759 326.536 411.414 322.307 409.551 317.895C407.778 313.698 410.127 307.762 410.655 302.589C410.787 301.294 410.98 299.993 410.974 298.696C410.957 295.348 412.34 292.155 415.368 291.557C418.438 290.951 421.966 291.858 425.108 292.753C426.884 293.259 428.286 295.075 430.325 296.768C431.129 297.36 431.465 297.484 431.801 297.609C431.568 297.041 431.334 296.473 431.101 295.905C429.481 293.8 427.258 291.925 426.349 289.548C423.019 280.838 419.72 271.997 420.054 262.476C420.365 253.617 426.582 250.527 433.808 255.228C434.798 255.872 436.188 255.901 438.752 256.569C435.378 252.739 432.871 250.014 430.499 247.176C424.265 239.721 421.933 230.895 422.057 221.406C422.127 216.091 429.688 213.199 435.165 215.938C437.244 216.978 439.662 217.342 442.595 218.399C449.812 219.603 462.893 232.87 465.656 240.376C464.539 231.885 463.422 223.395 462.445 215.967C456.664 216.756 452.087 217.404 447.502 217.994C445.871 218.204 444.221 218.273 442.58 218.407C441.664 217.276 440.877 215.306 439.814 215.144C428.312 213.389 423.173 204.111 417.092 196.072C415.015 193.328 413.474 190.021 412.373 186.741C411.389 183.807 411.472 181.538 415.683 179.741C423.707 176.316 431.617 179.179 439.548 178.784C437.854 178.927 436.159 179.07 433.002 179.336C447.826 181.48 450.386 182.863 457.597 192.239C456.871 189.041 456.234 186.239 455.6 183.434C455.21 183.845 454.818 184.258 454.723 184.358C453.578 180.367 452.402 176.273 451.371 172.68C447.186 173.894 443.644 175.485 439.979 175.848C434.707 176.371 429.226 176.692 424.062 175.791C419.925 175.069 415.872 172.799 412.251 170.482C408.587 168.137 405.064 165.255 402.284 161.935C399.551 158.67 397.412 154.718 395.895 150.731C395.384 149.388 397.105 146.047 398.626 145.31C402.04 143.655 405.946 142.314 409.693 142.198C415.904 142.006 422.172 142.668 428.366 143.398C431.198 143.732 433.911 145.085 437.708 146.308C434.882 141.537 432.777 137.575 430.192 133.956C429.659 133.209 426.692 133.071 425.953 133.79C422.206 137.437 418.311 139.488 412.723 139.232C408.767 139.052 404.717 140.901 399.435 142.145C400.787 140.221 401.145 139.712 401.651 138.991C389.886 139.647 380.811 134.95 373.462 126.381C369.986 122.329 371.819 114.957 376.825 112.945C379.475 111.881 382.04 110.605 385.024 109.252C378.463 110.211 372.3 111.787 366.135 111.801C361.054 111.812 355.786 110.484 350.958 108.752C348.244 107.779 346.011 104.996 343.985 102.66C339.112 97.044 340.313 91.8985 346.991 88.4109C347.94 87.915 348.74 87.132 349.424 85.8203C345.438 86.9247 341.493 88.7566 337.458 88.9816C329.172 89.4438 320.683 90.0247 312.568 88.7314C304.118 87.3846 302.491 80.8515 307.998 74.142C314.31 66.4521 321.647 60.2792 331.871 58.3345C333.819 57.9639 335.53 56.3505 337.917 54.9871C334.7 54.9871 331.844 55.2237 329.041 54.9406C321.967 54.2263 314.932 53.0875 307.851 52.4696C297.982 51.6084 292.972 43.737 286.973 37.7175C284.291 35.0256 281.516 30.6496 283.088 25.9353C283.677 24.1715 285.031 21.9255 286.573 21.3593C290.767 19.8189 295.225 18.9515 299.626 18.0418C301.362 17.6829 314.179 22.3142 316.736 22.7257C324.308 23.9444 329.094 29.4055 333.993 33.2919C333.993 26.4077 333.991 19.2442 333.993 12.0807C333.995 4.84317 340.535 -0.198385 346.696 3.56473C354.887 8.56717 362.203 14.7833 366.394 24.3868C368.067 28.2207 368.688 31.6161 369.088 35.4655C369.267 37.1941 371.155 38.989 370.863 40.4784C369.877 45.5079 368.408 50.4628 366.779 55.3312C366.398 56.4693 364.664 57.1545 363.585 58.0215C370.034 62.1995 376.467 66.3672 383.059 70.6378C382.34 62.583 381.013 55.2875 381.25 48.0431C381.452 41.8763 382.726 35.5283 386.402 30.1632C388.496 27.1073 391.442 25.8782 394.974 27.4827C402.791 31.0337 407.852 37.1089 410.989 45.0364C414.722 54.4714 415.064 64.1766 412.809 73.829C412.034 77.1444 409.203 80.0635 407.003 82.9266C405.874 84.3957 404.066 85.3426 404.892 85.3201C409.536 90.985 414.18 96.6499 419.313 102.763C420.135 103.345 420.468 103.478 420.801 103.612C420.559 103.051 420.316 102.491 420.074 101.931C421.045 93.7183 421.508 85.3989 423.195 77.3359C424.081 73.1034 426.889 69.1812 429.253 65.3822C430.848 62.8177 440.874 63.3156 443.446 66.2093C448.353 71.7325 452.118 78.0511 451.924 85.7086C451.739 93.02 453.6 100.574 450.006 107.589C447.888 111.723 446.13 116.153 443.335 119.775C442.122 121.347 438.707 121.22 436.552 121.795C440.413 128.067 444.17 134.171 447.299 139.254C449.914 132.887 452.485 125.214 456.186 118.132C458.444 113.811 461.55 109.474 466.755 107.723C472.77 105.699 474.472 106.993 478.216 112.105C481.721 116.889 482.499 122.094 482.937 127.474C483.949 139.878 478.927 150.146 471.167 159.451C468.321 162.863 465.309 165.286 460.41 164.447C462.552 171.508 464.553 178.104 466.609 184.878C467.747 182.267 468.692 179.64 469.989 177.201C475.468 166.899 483.912 160.289 495.209 157.343C498.412 156.508 502.888 159.791 502.913 162.995C502.955 168.468 503.717 174.064 502.834 179.384C501.59 186.871 499.115 194.066 493.889 200.091C490.318 204.208 486.701 208.105 481.477 209.919C478.944 210.799 476.175 211.003 473.22 211.569C473.22 218.341 473.22 225.413 473.22 232.568C477.659 223.607 484.658 217.735 494.2 215.042C498.507 213.827 502.895 212.848 507.297 212.032C511.472 211.258 512.889 213.934 512.969 217.474C513.245 229.569 509.829 240.114 500.856 248.832C496.238 253.318 491.903 257.448 485.107 258.155C483.173 258.356 481.445 260.672 479.524 260.829C477.529 260.992 475.415 259.717 473.405 259.086C472.349 265.002 471.176 271.571 469.651 278.666C469.256 280.021 469.214 280.85 469.118 282.72C469.934 281.084 470.264 280.421 470.595 279.757C474.058 275.893 478.128 272.586 483.011 271.088C491.117 268.601 499.517 267.296 508.065 268.027C511.235 268.298 513.774 274.117 511.74 278.325C508.476 285.078 505.191 292.191 500.232 297.612C497.364 300.747 492.805 303.349 488.277 305.516C480.681 309.15 473.38 307.121 466.02 307.935C464.998 308.048 463.89 307.386 462.307 306.937C460.895 312.402 459.483 317.872 457.93 323.885C468.784 317.786 480.19 320.335 491.288 320.241C495.925 320.202 499.131 325.021 497.937 329.737C495.917 337.714 490.428 343.234 484.076 348.021C476.62 353.64 468.005 355.603 458.986 354.832C453.458 354.359 448.059 352.382 442.21 350.987C438.989 355.628 435.139 361.173 430.437 367.949C436.552 366.771 441.452 365.824 446.354 364.889C446.859 364.793 447.405 364.637 447.885 364.736C451.369 365.457 454.861 366.154 458.31 367.02C461.864 367.911 465.815 368.268 468.81 370.123C475.405 374.208 474.242 381.051 468.073 385.882C462.847 389.976 457.072 393.407 451.338 396.79C449.649 397.787 447.266 397.973 445.215 397.926C438.317 397.769 431.39 397.662 424.54 396.925C417.719 396.19 414.591 392.539 413.539 385.276C408.523 391.116 403.587 396.862 398.651 402.608C398.232 402.402 397.813 402.197 397.394 401.991C398.611 401.991 399.83 402.038 401.045 401.984C412.576 401.469 422.884 405.241 432.491 411.186C436.159 413.456 437.715 417.076 436.939 421.379C436.243 425.237 434.143 427.4 430.232 429.29C423.498 432.545 416.635 433.077 409.29 433.001C409.854 433.756 410.183 434.196 410.534 434.664C410.287 434.775 410.032 435.002 409.809 434.975C401.88 433.993 393.619 434.028 386.149 431.616C381.266 430.039 376.579 425.773 375.318 419.344C375.705 418.415 375.777 417.956 375.848 417.497C375.379 417.737 374.909 417.977 374.44 418.217C369.147 421.141 363.847 424.051 358.568 427C357.187 427.771 355.875 428.665 355.598 428.838C361.93 431.053 369.47 432.67 375.906 436.265C381.047 439.137 385.343 444.018 389.102 448.734C393.185 453.856 390.626 460.436 384.289 460.823C373.369 461.488 362.254 461.995 351.472 460.61C345.861 459.889 340.098 455.73 335.733 451.688C333.139 449.287 333.13 444.095 331.988 440.255C327.555 441.645 322.203 443.324 316.449 445.059ZM434.207 298.772C433.871 298.645 433.535 298.518 433.2 298.39C433.436 298.956 433.672 299.521 433.985 300.797C440.245 307.848 443.739 316.098 444.366 327.008C447.511 319.216 450.075 312.863 452.46 306.955C449.977 306.955 446.989 307.808 444.975 306.77C441.212 304.833 438.014 301.798 434.207 298.772ZM459.991 277.557C461.12 272.071 462.248 266.585 463.349 261.236C461.642 261.809 459.958 262.962 458.452 262.765C454.493 262.247 450.612 261.14 445.509 260.002C451.526 269.296 460.37 275.27 457.737 286.782C458.315 286.68 458.892 286.579 459.469 286.478C459.643 283.814 459.817 281.15 459.991 277.557ZM430.925 347.515C423.525 347.931 420.79 341.407 415.98 336.938C417.471 341.52 419.269 345.332 419.86 349.324C420.497 353.628 420.004 358.101 420.004 363.113C423.925 357.837 427.454 353.09 430.925 347.515ZM392.554 104.001C390.523 105.263 388.492 106.525 386.264 107.91C393.834 107.91 401.128 107.91 409.211 107.91C406.327 104.551 403.829 101.642 401.415 98.8294C398.441 100.73 395.885 102.363 392.554 104.001ZM364.122 80.9941C367.852 80.0307 371.582 79.0672 374.88 78.2154C372.736 76.824 369.785 75.0786 367.026 73.0699C364.481 71.2175 362.576 71.5508 360.936 74.2544C359.239 77.0514 357.342 79.7267 355.513 82.4851C357.88 82.0316 360.589 81.5127 364.122 80.9941ZM385.944 72.3211C385.475 71.7805 385.006 71.2399 384.538 70.6993C384.366 70.9538 383.993 71.3535 384.055 71.4392C384.444 71.9775 384.929 72.446 385.944 72.3211Z" fill="#F9F9F9"/>
<path d="M2022.26 120.235C2026.97 112.152 2033.69 106.601 2040.92 101.577C2046.48 97.7149 2051.96 93.7032 2057.74 90.2146C2059.99 88.8605 2063.06 88.9516 2065.63 88.0363C2068.31 87.0838 2070.83 85.7022 2073.43 84.5297C2073.94 84.2996 2074.49 84.0392 2075.03 84.0101C2087.89 83.3207 2100.74 82.4778 2113.6 82.0579C2122.76 81.7591 2131.96 81.5585 2141.08 82.2226C2147.4 82.6825 2153.88 84.011 2159.71 86.3666C2161.8 87.2117 2163.86 87.3888 2165.85 88.1007C2169.61 89.4511 2173.64 90.5908 2176.88 92.7991C2184.9 98.2493 2192.94 103.801 2200.22 110.166C2207.24 116.298 2213.38 123.424 2217.05 132.308C2218.26 135.227 2220.46 137.791 2221.34 140.774C2222.72 145.471 2227.51 148.553 2227.13 154.1C2227 156.036 2228.66 158.044 2228.81 160.07C2228.88 160.961 2227.23 161.982 2225.65 163.731C2224.59 164.252 2222.43 165.299 2220.28 166.38C2219.41 166.815 2218.63 167.63 2217.74 167.748C2212.86 168.393 2208.77 170.289 2204.64 173.186C2202.16 174.931 2197.74 173.926 2194.04 174.167C2194.04 171.949 2194.04 170.302 2194.04 168.355C2193.3 168.877 2192.79 169.235 2192 169.794C2192.78 163.459 2188.12 159.389 2186.35 154.303C2181.7 140.956 2171.97 131.909 2162.29 122.589C2158.25 118.703 2153.06 117.219 2148.21 115.053C2143.02 112.739 2137.38 111.921 2131.92 110.566C2121 107.858 2110.16 108.931 2099.45 109.329C2092.18 109.598 2084.42 111.662 2077.9 116.12C2074.23 118.631 2069.6 120.165 2066.74 123.344C2063.12 127.378 2060.81 132.61 2058.03 137.378C2056.68 139.684 2055.47 142.078 2054.35 144.505C2053.98 145.313 2054.02 146.347 2054.01 147.279C2053.98 151.775 2054 156.27 2054 160.766C2054 161.432 2053.79 162.2 2054.05 162.749C2056.04 167.018 2057.64 171.587 2060.32 175.396C2063.44 179.849 2067.31 183.847 2071.25 187.635C2075.06 191.289 2079.17 194.694 2083.49 197.712C2087.97 200.836 2092.82 203.436 2097.58 206.126C2101.25 208.195 2105.06 210.002 2108.76 212.011C2113.74 214.718 2118.7 217.466 2123.63 220.274C2129.23 223.467 2134.8 226.732 2140.36 229.99C2148.67 234.854 2156.94 239.791 2165.29 244.597C2170.31 247.488 2175.43 250.205 2180.52 252.972C2183.23 254.445 2186.26 255.501 2188.65 257.374C2194.1 261.649 2199.51 266.042 2204.45 270.894C2208.92 275.295 2214.08 278.685 2217.91 284.289C2220.89 288.664 2224.09 293.365 2227.32 297.791C2230.14 301.654 2231.92 306.07 2233.53 310.806C2235.48 316.553 2233.72 322.083 2235.72 328.545C2235.91 324.479 2236.05 321.477 2236.18 318.474C2236.37 318.482 2236.56 318.49 2236.75 318.498C2236.75 328.511 2236.75 338.523 2236.75 348.536C2236.51 348.543 2236.26 348.55 2236.02 348.558C2236.02 344.523 2236.02 340.489 2236.02 336.455C2235.75 336.458 2235.48 336.461 2235.21 336.463C2235.21 343.083 2235.21 349.703 2235.21 356.934C2234.26 356.23 2233.78 355.875 2233.96 356.008C2232.35 361.496 2231.63 367.758 2228.79 372.819C2223.17 382.797 2216.88 392.313 2208.1 400.23C2200.81 406.8 2192.9 411.842 2184.22 416.052C2176.86 419.626 2169.11 421.968 2161.4 424.566C2153.18 427.33 2145.33 427.643 2137.12 428.053C2128.64 428.477 2120.18 429.852 2111.71 429.834C2102.61 429.815 2093.42 429.201 2084.43 427.797C2079.25 426.987 2074.41 424.046 2069.38 422.165C2063.72 420.052 2058.01 418.094 2052.37 415.964C2051.31 415.566 2050.43 414.696 2049.49 414.009C2039.96 407.023 2030.39 400.404 2022.7 390.918C2013.82 379.947 2007.65 367.737 2001.78 355.213C1998.7 348.628 2001.3 344.81 2008.3 343.848C2010.42 343.556 2012.26 341.47 2014.34 340.41C2016.19 339.464 2018.12 338.484 2020.13 338.074C2025.17 337.047 2030.26 336.334 2035.77 335.423C2035.77 337.919 2035.77 339.672 2035.77 341.905C2036.69 341.16 2037.19 340.757 2037.69 340.352C2041.04 354.46 2048.6 366.338 2058.41 376.572C2068.48 387.072 2080.04 395.665 2095.56 397.355C2095.23 397.761 2094.86 398.225 2094.24 399.005C2096.86 399.005 2099.24 399.005 2102.64 399.005C2100.92 399.821 2100.17 400.179 2098.4 401.02C2113.43 401.02 2127.34 401.02 2141.73 401.02C2141.15 400.286 2140.8 399.83 2140.19 399.047C2142.79 399.047 2145.17 399.047 2147.9 399.047C2147.22 398.287 2146.84 397.866 2146.42 397.412C2146.64 397.277 2146.84 397.073 2147.07 397.026C2153.21 395.766 2159.33 394.637 2164.08 389.893C2166.37 387.604 2169.81 386.263 2171.59 383.7C2174.56 379.399 2178.53 376.121 2180.36 370.493C2183.73 360.176 2181.53 350.023 2181.63 339.886C2181.67 335.704 2178.25 331.088 2175.46 327.38C2171.83 322.558 2167.45 318.254 2163.05 314.078C2158.93 310.162 2154.59 306.402 2149.95 303.125C2145.09 299.686 2139.77 296.885 2134.63 293.837C2129.53 290.807 2124.48 287.652 2119.25 284.85C2112.24 281.089 2104.95 277.811 2097.98 273.972C2085.97 267.362 2074.06 260.565 2062.21 253.669C2057.29 250.805 2052.12 248.047 2047.95 244.264C2036.41 233.786 2024.45 223.961 2016.48 209.736C2010.12 198.371 2006.64 187.047 2007.06 174.376C2007.36 165.388 2007.25 156.165 2009.32 147.526C2010.98 140.605 2012.4 133.009 2017.95 127.38C2019.76 125.543 2020.67 122.819 2022.26 120.235Z" fill="#F7F7F7"/>
<path d="M1733 303.983C1733.01 308.45 1733.01 312.42 1733.01 316.391C1733.31 316.394 1733.61 316.398 1733.91 316.402C1733.91 312.435 1733.91 308.468 1733.91 304.501C1734.22 304.502 1734.52 304.504 1734.83 304.505C1734.83 312.155 1734.83 319.806 1734.83 327.798C1735.76 327.145 1736.26 326.79 1736.62 326.543C1737.61 331.565 1738.58 336.505 1739.56 341.429C1739.79 340.91 1740.14 340.147 1740.18 340.061C1744.57 354.333 1752.78 366.682 1764.03 376.941C1775.07 387.018 1786.99 395.773 1802.79 397.172C1802.28 397.761 1801.91 398.188 1801.22 398.983C1805.22 398.983 1808.91 398.983 1812.6 398.983C1812.62 399.224 1812.63 399.465 1812.64 399.705C1810.94 399.896 1809.24 400.086 1807.54 400.276C1807.56 400.437 1807.58 400.598 1807.59 400.759C1823.56 400.759 1839.53 400.759 1855.5 400.759C1855.52 400.613 1855.54 400.466 1855.56 400.32C1854.22 400.136 1852.88 399.951 1851.54 399.767C1851.55 399.583 1851.55 399.399 1851.55 399.215C1854.86 399.215 1858.16 399.215 1861.47 399.215C1861.52 398.999 1861.56 398.783 1861.61 398.567C1860.87 398.231 1860.13 397.896 1859.86 397.773C1877.84 393.946 1893.22 385.439 1905 370.722C1915.47 357.646 1923.36 343.427 1925.56 326.575C1925.75 326.732 1926.17 327.09 1926.91 327.717C1926.91 324.107 1926.91 320.746 1926.91 317.386C1927.14 317.356 1927.37 317.327 1927.6 317.297C1927.88 318.395 1928.15 319.492 1928.43 320.589C1928.6 320.561 1928.76 320.533 1928.93 320.505C1928.93 243.227 1928.93 165.948 1928.93 88.3282C1938.5 88.3282 1947.9 88.3282 1957.73 88.3282C1957.81 89.308 1958 90.5641 1958 91.8203C1958.01 169.813 1958.02 247.806 1957.95 325.798C1957.95 327.843 1957.04 329.88 1956.62 331.934C1956.18 334.106 1955.81 336.294 1955.41 338.431C1955.18 338.21 1954.73 337.795 1954.41 337.501C1953.6 342.273 1953.59 347.326 1951.8 351.643C1949.41 357.414 1945.65 362.622 1942.45 368.056C1940.49 371.395 1938.5 374.716 1936.49 378.028C1931.59 386.102 1924.8 392.249 1917.79 398.545C1913.2 402.669 1908.27 406.921 1903.25 409.34C1896.6 412.536 1890.74 417.928 1882.48 418.313C1878.46 418.5 1874.59 421.814 1870.64 423.702C1870.36 423.84 1870.03 423.96 1869.71 423.97C1859.16 424.311 1849.18 427.943 1838.48 428.622C1827 429.35 1815.54 429.799 1804.08 429.746C1795.6 429.707 1787.04 429.194 1778.68 427.836C1771.35 426.645 1764 424.604 1757.17 421.725C1753.55 420.197 1750.2 418.649 1746.27 417.746C1742.75 416.937 1739.79 413.836 1736.48 411.922C1733.38 410.13 1729.9 408.908 1727.05 406.816C1723.68 404.353 1721.26 400.1 1717.62 398.617C1710.19 395.591 1706.7 388.807 1701.5 383.746C1697.7 380.046 1695.41 374.848 1691.92 370.762C1687.83 365.964 1686.43 360.029 1683.98 354.529C1683 352.333 1682.09 350.11 1681.1 347.805C1681.22 347.767 1680.63 347.95 1680.05 348.133C1680.06 346.804 1679.99 345.469 1680.1 344.148C1680.38 340.6 1679.39 337.688 1676.42 335.46C1675.93 335.091 1676.14 333.704 1676.13 332.787C1676.11 328.033 1676.12 323.279 1675.26 318.483C1675.11 319.817 1674.97 321.151 1674.82 322.485C1674.63 322.47 1674.44 322.455 1674.24 322.44C1674.24 244.48 1674.24 166.521 1674.24 88.0094C1685.29 88.0094 1696.38 88.012 1707.48 88.0084C1714.31 88.0061 1721.15 88.2024 1727.97 87.9072C1731.94 87.7353 1733.11 89.0094 1733.09 93.0033C1732.95 128.499 1733.01 163.996 1733.01 199.492C1733.01 234.157 1733 268.822 1733 303.983Z" fill="#F7F7F7"/>
<path d="M1110.99 339C1110.99 263.014 1111.01 187.528 1110.94 112.042C1110.94 105.958 1110.39 99.8729 1110.02 93.7919C1109.79 89.8353 1111.53 87.9823 1115.53 87.9836C1188.85 88.0073 1262.17 88.0183 1335.49 87.9576C1339.56 87.9543 1341.18 89.5587 1341.05 93.5717C1340.88 98.5651 1340.91 103.571 1341.05 108.566C1341.17 113.147 1339.36 115.068 1334.56 115.059C1281.74 114.954 1228.91 115.029 1176.09 114.942C1171.7 114.935 1169.62 115.5 1170.82 120.82C1171.76 124.941 1171.01 129.443 1171.01 133.776C1171.02 159.604 1171.02 185.433 1171.02 211.261C1171.02 216.005 1171.02 220.749 1171.02 225.984C1172.36 225.984 1174.48 225.984 1176.6 225.984C1210.43 225.984 1244.26 225.979 1278.09 225.991C1282.38 225.993 1285 228.665 1285.01 232.976C1285.03 239.456 1285.02 245.936 1285.02 252.799C1246.75 252.799 1208.68 252.799 1170.48 252.799C1170.48 300.413 1170.48 347.643 1170.48 395.277C1227.35 395.277 1284.06 395.277 1341.02 395.277C1341.02 402.574 1341.03 409.696 1341.01 416.817C1340.99 420.171 1339.4 421.945 1335.89 421.943C1266.75 421.913 1197.61 421.904 1128.47 421.891C1124.48 421.89 1120.49 421.892 1116.49 421.901C1111.5 421.912 1109.94 420.432 1110 415.237C1110.29 391.99 1110.65 368.744 1110.98 345.498C1111.01 343.499 1110.99 341.499 1110.99 339Z" fill="#F7F7F7"/>
<path d="M176.985 260C176.985 223.341 177.148 187.18 176.859 151.023C176.796 143.035 179.874 142.852 186.019 142.079C189.79 141.604 193.673 141.985 197.505 142.027C202.844 142.086 206.012 145.258 206.013 150.529C206.016 198.519 206.014 246.509 206.014 294.499C206.014 299.709 208.086 301.961 213.263 301.978C229.76 302.033 246.297 302.691 262.738 301.738C272.5 301.172 282.608 299.264 291.657 295.68C301.405 291.819 310.147 285.343 315.962 275.968C318.084 272.546 320.463 269.217 322.058 265.555C323.505 262.23 323.326 258.085 325.122 255.045C330.766 245.487 326.88 235.248 327.855 225.393C328.081 223.109 326.533 220.641 325.759 218.272C325.614 217.825 325.034 217.434 325.051 217.034C325.481 206.944 319.433 199.643 313.851 192.433C309.662 187.022 304.542 182.609 297.816 179.631C291.175 176.69 284.3 175.018 277.652 172.601C270.023 169.827 262.794 171.686 255.446 171.186C251.684 170.929 248.978 173.915 248.984 178.267C248.993 185.766 249.01 193.264 249.011 200.762C249.016 218.922 249.104 237.083 248.939 255.241C248.905 259.001 250.115 260.207 253.818 260.054C260.648 259.77 267.642 260.676 273.905 256.995C281.23 252.689 286.082 247.388 286.301 237.748C286.501 228.955 283.71 222.113 278.582 215.636C278.426 215.439 278.292 215.132 278.094 215.078C273.008 213.701 267.981 211.925 262.803 211.127C258.315 210.434 255.04 207.847 255.001 203.396C254.964 199.064 254.987 194.732 254.988 190.399C254.988 185.061 256.486 183.005 261.945 183.156C271.142 183.41 280.174 183.343 288.821 188.63C296.358 193.238 302.301 198.576 307.588 205.575C310.654 209.633 311.258 214.254 313.414 217.997C318.098 226.123 316.235 234.362 315.528 242.132C314.835 249.746 313.35 257.68 308.472 264.766C305.135 269.614 301.773 274.225 297.414 277.982C291.882 282.75 285.271 285.092 278.168 287.352C261.199 292.748 244.136 288.454 227.207 289.877C221.339 290.37 218.992 287.62 218.991 281.698C218.986 244.54 218.989 207.381 218.991 170.222C218.992 163.562 218.895 156.901 219.044 150.245C219.125 146.621 224.122 141.962 227.912 142.025C242.157 142.264 256.548 141.546 270.583 143.429C278.175 144.448 286.148 144.016 293.324 146.279C301.945 148.997 309.857 153.908 318.183 157.631C326.998 161.573 333.14 168.657 339.01 175.757C345.338 183.413 350.679 191.763 352.151 202.142C352.899 207.417 355.252 212.458 356.794 217.63C357.065 218.541 356.954 219.577 356.953 220.556C356.949 231.193 357.396 241.861 356.72 252.456C356.384 257.705 354.133 262.874 352.456 267.983C350.83 272.938 349.518 278.191 346.839 282.559C342.326 289.919 337.347 297.13 331.63 303.576C325.353 310.654 317.992 316.765 309.036 320.482C305.265 322.048 301.125 322.994 297.736 325.142C293.855 327.602 288.985 326.577 285.801 328.383C280.98 331.119 276.524 329.726 272.021 329.89C254.456 330.529 236.873 330.892 219.295 330.944C206.886 330.98 194.476 330.262 182.064 330.062C177.724 329.992 176.935 327.654 176.949 323.986C177.025 302.824 176.985 281.662 176.985 260Z" fill="#F7F7F7"/>
<path d="M228.836 454C223.707 455.012 221.214 458.625 221.617 465.133C221.876 469.317 220.623 471.92 216.088 472.014C209.901 472.142 207.2 476.909 203.834 481.359C203.69 481.719 203.244 481.862 203.057 481.413C202.128 480.333 201.386 479.701 200.644 479.07C200.429 479.993 200.214 480.916 199.999 481.839C198.905 482.215 197.81 482.592 196.369 482.532C196.494 480.955 196.967 479.814 197.716 478.007C193.704 478.007 190.052 477.62 186.549 478.176C184.884 478.441 183.506 480.505 181.998 481.754C180.551 481.215 179.105 480.675 177.329 479.635C177 478.423 177 477.711 177.334 476.967C182.213 474.645 178.585 473.46 176.987 471.725C176.959 471.267 176.945 471.084 176.932 470.901C176.932 470.901 176.965 470.984 177.262 470.834C178.351 468.756 179.143 466.828 179.935 464.9C179.935 464.9 179.981 464.983 180.327 464.978C181.448 464.982 182.224 464.991 183.227 465.268C185.105 464.667 186.757 463.798 188.409 462.929C187.606 461.619 186.803 460.31 185.637 459C184.789 459 184.305 458.999 183.821 458.999C185.18 457.869 186.54 456.74 188.208 455.205C188.739 454.633 188.897 454.418 188.99 454.156C188.99 454.156 189.425 454 189.961 454.18C194.488 457.039 202.42 454.296 206.375 449C207.5 449 208.25 449 209.06 449.355C210.982 450.315 213.367 451.906 214.568 451.268C215.931 450.544 216.29 447.845 216.967 445.962C217.177 445.379 217 444.658 216.974 443.679C216.299 442.572 215.649 441.786 214.959 440.631C213.959 438.572 212.286 436.932 212.162 435.182C211.552 426.624 211.222 418.039 211.085 409.459C211.038 406.504 212.133 403.807 216.354 404.059C219.181 405.063 221.652 406.009 224.124 406.954C224.124 406.954 224.575 407.001 224.803 407.345C225.301 408.122 225.569 408.554 225.838 408.987C225.89 409.147 225.943 409.307 225.637 409.724C223.381 409.755 221.484 409.529 218.798 409.21C218.798 420.879 218.798 432.097 218.798 441.642C222.32 442.655 224.66 443.327 226.769 444.181C226.702 444.85 226.865 445.338 227.029 445.826C227.686 445.551 228.343 445.275 229.25 445C229.5 445 230 445 230 445C231.457 446.294 232.913 447.587 234.851 449.308C233.306 450.246 231.729 451.202 229.805 452.602C229.25 453.363 229.043 453.682 228.836 454Z" fill="#FAFAFA"/>
<path d="M185.157 440C185.157 440 185.002 439.573 184.957 438.983C183.607 437.595 182.304 436.797 180.716 435.79C178.698 434.856 176.975 434.107 175.228 433.415C172.994 432.53 169.84 432.319 168.704 430.689C166.921 428.131 165.272 428.293 163.001 429C163.84 427.43 164.545 425.766 165.56 424.32C166.421 423.092 168.455 422.125 168.469 421.022C168.484 419.931 166.75 418.641 165.55 417.753C164.114 416.69 162.432 415.961 160.506 415.044C160.101 413.646 160.046 412.292 159.985 410.117C160.127 407.991 159.793 406.276 160.499 405.448C164.955 400.222 163.675 394.184 163.179 388.293C162.873 384.649 165.926 381.646 169.626 382.357C172.367 382.884 175.101 383.451 177.838 384C179.021 385.3 180.203 386.601 181.694 388.399C183.613 390.932 185.225 392.966 186.836 395C186.836 395 186.991 395.429 187 396.052C186.937 398.393 186.684 400.128 186.834 401.827C187.125 405.102 187.685 408.353 188.055 411.623C188.45 415.111 186.281 419.603 191.838 421C191.89 421.757 191.943 422.514 191.716 423.779C191.193 424.521 191.032 424.802 190.952 425.128C191.026 427.752 191.1 430.375 191.588 433.461C193.025 435.801 194.049 437.678 194.895 439.231C193.451 439.754 191.668 440.4 189.886 441.046C189.164 440.759 188.442 440.472 187.092 440.099C186.029 440.009 185.593 440.004 185.157 440Z" fill="#FAFAFA"/>
<path d="M307.461 435.907C305.401 436.705 303.673 437.365 301.121 438.34C297.153 425.856 299.984 412.632 298.968 399.292C302.348 397.024 305.725 395.15 309.136 393.34C311.526 392.071 317.963 396.884 317.995 400.022C318.054 405.809 318.012 411.597 318.012 417.802C317.267 417.21 316.771 416.815 316.663 416.73C314.289 423.242 313.577 430.618 307.461 435.907Z" fill="#F9F9F9"/>
<path d="M230.306 444.868C230 445 229.5 445 228.991 444.893C227.988 444.524 227.494 444.262 227 444C224.66 443.327 222.32 442.655 218.798 441.642C218.798 432.097 218.798 420.879 218.798 409.21C221.484 409.529 223.381 409.755 225.696 409.969C231.008 412.212 233.204 416.825 233.801 421.431C234.639 427.911 234.009 434.581 233.731 441.728C233.225 442.523 233.089 442.805 233.047 443.131C233.047 443.131 233.042 443.546 233.085 443.749C232.289 444.214 231.451 444.475 230.306 444.868Z" fill="#F9F9F9"/>
<path d="M204.101 436.131C203.395 434.164 203.03 431.978 201.927 430.267C195.781 420.734 195.255 410.136 196.158 399.389C196.344 397.176 198.166 394.148 200.056 393.276C202.367 392.21 205.89 392.109 207.483 396.289C207.559 397.061 207.236 397.46 207.331 397.651C211.138 405.307 208.746 413.439 208.718 421.285C208.703 425.26 205.598 429.241 210.298 432.266C208.867 433.816 207.934 434.827 206.572 435.911C205.399 435.982 204.655 435.98 203.962 436.011C204.013 436.045 204.101 436.131 204.101 436.131Z" fill="#FBFBFB"/>
<path d="M190.044 441.387C191.668 440.4 193.451 439.754 194.895 439.231C194.049 437.678 193.025 435.801 192.001 433.544C195.775 434.112 199.549 435.058 203.713 436.068C204.101 436.132 204.013 436.045 204.071 436.337C205.471 436.752 206.814 436.876 208.492 437.042C210.884 438.389 212.942 439.695 215 441C215.649 441.786 216.299 442.572 216.623 443.741C214.304 446.406 214.305 451.674 209 449C208.25 449 207.5 449 206.005 449.039C201.131 450.037 197.003 450.997 192.874 451.956C196.406 450.091 199.937 448.225 202.955 446.631C199.079 445.14 194.641 443.434 190.044 441.387Z" fill="#FBFBFB"/>
<path d="M1735 121C1735 181.775 1735 242.05 1735 302.325C1734.78 302.325 1734.55 302.325 1734.33 302.325C1734.33 232.442 1734.33 162.559 1734.33 92.6767C1734.55 92.6714 1734.78 92.6662 1735 92.6609C1735 101.941 1735 111.22 1735 121Z" fill="white"/>
<path d="M177.813 383.641C175.101 383.451 172.367 382.884 169.626 382.357C165.926 381.646 162.873 384.649 163.179 388.293C163.675 394.184 164.955 400.222 160.499 405.448C159.793 406.276 160.127 407.992 159.967 409.71C156.819 406.239 155.376 402.655 158.717 397.63C160.254 395.318 158.652 391.103 159.065 387.825C160.205 378.764 162.669 376.942 170.182 378.208C172.924 378.67 175.264 381.521 177.813 383.641Z" fill="#FBFBFB"/>
<path d="M214.959 440.631C212.942 439.695 210.884 438.389 208.388 436.771C207.634 436.252 207.317 436.045 207 435.839C207.934 434.827 208.867 433.816 210.298 432.266C205.598 429.241 208.703 425.26 208.718 421.285C208.746 413.439 211.138 405.307 207.331 397.651C207.236 397.46 207.559 397.061 207.833 396.463C208.149 396.119 208.319 396.072 208.789 396.431C211.393 399.225 213.696 401.612 216 404C212.133 403.807 211.038 406.504 211.085 409.459C211.222 418.039 211.552 426.624 212.162 435.182C212.287 436.932 213.959 438.572 214.959 440.631Z" fill="#FAFAFA"/>
<path d="M1273 393C1278.79 393 1284.09 393 1289.39 393C1289.38 393.23 1289.38 393.46 1289.38 393.689C1254.46 393.689 1219.54 393.689 1184.62 393.689C1184.62 393.46 1184.62 393.23 1184.62 393C1213.91 393 1243.2 393 1273 393Z" fill="white"/>
<path d="M191.919 420.582C186.281 419.603 188.45 415.111 188.055 411.623C187.685 408.353 187.124 405.103 186.834 401.827C186.684 400.128 186.937 398.393 187.026 396.278C187.769 396.179 189.037 396.349 189.14 396.792C190.937 404.473 194.974 411.904 191.919 420.582Z" fill="#FBFBFB"/>
<path d="M216.354 404.059C213.696 401.612 211.393 399.225 209.045 396.5C214.289 395.344 216.962 399.699 220.551 402.145C221.963 403.106 222.869 404.808 224.065 406.563C221.652 406.009 219.181 405.063 216.354 404.059Z" fill="#FBFBFB"/>
<path d="M2111.03 80C2116.51 80.0056 2121.49 80.0053 2126.48 80.0317C2126.78 80.0333 2127.08 80.2479 2128.21 80.6872C2118.46 80.6872 2109.54 80.6872 2100.63 80.6872C2100.62 80.4581 2100.62 80.2291 2100.61 80C2103.92 80 2107.23 80 2111.03 80Z" fill="white"/>
<path d="M186.914 394.638C185.225 392.966 183.613 390.932 182.001 388.527C183.664 390.197 185.328 392.237 186.914 394.638Z" fill="#FBFBFB"/>
<path d="M225.915 408.672C225.569 408.554 225.301 408.121 225.016 407.423C225.331 407.556 225.662 407.956 225.915 408.672Z" fill="#FBFBFB"/>
<path d="M191.061 425.407C191.032 424.802 191.193 424.521 191.64 424.153C191.619 424.573 191.394 425.13 191.061 425.407Z" fill="#FBFBFB"/>
<path d="M233.304 443.042C233.089 442.805 233.225 442.523 233.65 442.152C233.751 442.329 233.657 442.641 233.304 443.042Z" fill="#FBFBFB"/>
<path d="M162.991 429.384C165.272 428.293 166.921 428.131 168.704 430.689C169.84 432.319 172.994 432.53 175.228 433.415C176.975 434.107 178.698 434.856 180.719 436.143C181.018 437.178 181.031 437.649 181.043 438.12C182.166 447.626 176.551 453.114 169.483 457.899C164.81 461.063 159.697 462.129 154.229 461.955C146.495 461.709 138.649 462.073 131.062 460.859C121.936 459.399 119.6 452.174 126.157 445.812C131.928 440.213 137.576 433.869 146.523 432.921C148.765 432.683 150.923 431.65 153.535 430.93C157.289 433.981 160.451 433.592 162.991 429.384Z" fill="#F9F9F9"/>
<path d="M62.9218 261C64.7591 260.999 66.165 260.999 68.9175 260.999C60.2989 267.957 56.5041 276.526 53.2905 285.543C52.0442 277.55 50.798 269.556 49.4073 260.636C54.3825 264.178 58.4587 263.171 62.9218 261Z" fill="black"/>
<path d="M69.9908 327.303C69.9536 327.883 69.9659 328.15 69.8788 328.188C69.6812 328.274 69.2643 328.325 69.2321 328.254C66.4926 322.277 63.7093 316.317 61.1341 310.268C60.6694 309.177 61.0679 307.718 61.0679 306.31C68.7717 309.187 72.8861 302.072 79.8512 299.842C72.67 308.29 69.4229 316.941 69.9908 327.303Z" fill="black"/>
<path d="M97.6792 339.785C95.5413 347.06 93.6643 354.054 91.9612 360.401C89.343 357.094 85.8913 352.735 83.0347 349.128C87.949 345.553 93.0404 341.85 97.9401 338.287C97.9401 338.228 97.9401 338.866 97.6792 339.785Z" fill="black"/>
<path d="M104.513 107.054C107.949 103.599 111.095 100.421 114.025 97.4608C117.773 101.154 121.377 104.706 124.988 108.264C118.377 107.967 111.3 107.65 104.513 107.054Z" fill="black"/>
<path d="M145.953 73.9871C147.672 72.5028 149.001 71.0381 149.956 69.986C152.529 73.9213 155.186 77.9852 157.574 81.6394C151.934 80.5881 145.306 79.3527 138.678 78.1172C140.639 76.9465 143.101 75.4766 145.953 73.9871Z" fill="black"/>
<path d="M123.903 392.13C124.323 392.491 124.568 393.056 124.813 393.62C124.476 393.485 124.14 393.35 123.61 392.992C123.521 392.624 123.625 392.479 123.903 392.13Z" fill="black"/>
<path d="M83.7729 296.601C83.1434 296.793 82.7579 296.667 82.3724 296.541C82.4762 296.341 82.601 295.961 82.6804 295.97C83.1318 296.023 83.5725 296.169 83.7729 296.601Z" fill="black"/>
<path d="M182.391 481.873C183.506 480.505 184.884 478.441 186.549 478.176C190.052 477.62 193.705 478.007 197.716 478.007C196.967 479.814 196.494 480.955 196.012 482.454C195.555 482.864 195.108 482.917 194.314 482.51C191.609 477.761 189.247 480.271 186.885 482.047C185.518 482.029 184.151 482.01 182.391 481.873Z" fill="#F9F9F9"/>
<path d="M192.574 452.065C197.003 450.997 201.131 450.037 205.63 449.039C202.42 454.296 194.488 457.039 190.19 454.154C190.68 453.356 191.477 452.765 192.574 452.065Z" fill="#FAFAFA"/>
<path d="M183.509 459.126C184.305 458.999 184.789 459 185.636 459.375C184.999 461.5 184 463.25 183 465C182.224 464.991 181.448 464.982 180.285 464.955C180.997 463.043 182.097 461.148 183.509 459.126Z" fill="#FBFBFB"/>
<path d="M187.08 482.417C189.247 480.271 191.609 477.761 193.984 482.43C191.758 482.803 189.516 482.796 187.08 482.417Z" fill="#FAFAFA"/>
<path d="M177 477C177 477.711 177 478.423 177 479.49C172.622 477.313 173.568 474.331 176.601 471.051C176.945 471.084 176.959 471.267 176.986 472.142C177 474.222 177 475.611 177 477Z" fill="#FBFBFB"/>
<path d="M215.582 478.056C216.671 478.827 217.47 479.697 218.269 480.568C218.042 480.891 217.814 481.214 217.586 481.537C216.365 481.363 215.144 481.19 213.564 481.009C213.901 480.054 214.596 479.105 215.582 478.056Z" fill="#F9F9F9"/>
<path d="M181.391 438.165C181.031 437.648 181.018 437.178 181.003 436.353C182.304 436.797 183.607 437.595 184.933 438.757C183.883 438.818 182.811 438.514 181.391 438.165Z" fill="#FBFBFB"/>
<path d="M179.606 465.046C179.143 466.828 178.351 468.756 177.221 470.816C177.682 469.029 178.48 467.111 179.606 465.046Z" fill="#FAFAFA"/>
<path d="M200.275 481.918C200.214 480.916 200.429 479.993 200.644 479.07C201.386 479.701 202.128 480.333 202.835 481.337C202.051 481.805 201.301 481.901 200.275 481.918Z" fill="#F9F9F9"/>
<path d="M185.148 440.321C185.593 440.004 186.029 440.009 186.791 440.029C186.458 440.243 185.798 440.443 185.148 440.321Z" fill="#FBFBFB"/>
<path d="M188.722 454.109C188.897 454.418 188.739 454.633 188.336 454.892C188.255 454.677 188.354 454.369 188.722 454.109Z" fill="#FBFBFB"/>
<path d="M214.065 507.066C212.832 505.722 211.569 504.364 210.306 503.006C211.606 502.587 212.909 502.175 214.206 501.748C214.828 501.543 215.44 501.309 216.386 501.042C216.144 502.415 215.574 503.835 214.731 505.766C214.231 506.511 214.1 506.788 214.065 507.111C214.065 507.111 214.035 507.051 214.065 507.066Z" fill="#F9F9F9"/>
<path d="M220.004 495.655C217.709 495.675 215.572 495.349 213.436 495.023C213.465 494.686 213.495 494.348 213.525 494.011C215.809 493.052 218.094 492.092 220.75 491.088C220.802 492.466 220.483 493.888 220.004 495.655Z" fill="#F9F9F9"/>
<path d="M225.906 483.693C224.951 483.066 224.07 482.131 223.19 481.196C224.1 481.267 225.009 481.337 225.982 481.763C226.023 482.541 226.001 482.963 225.906 483.693Z" fill="#F9F9F9"/>
<path d="M214.32 507.027C214.1 506.788 214.231 506.511 214.652 506.148C214.756 506.326 214.666 506.634 214.32 507.027Z" fill="#FBFBFB"/>
<path d="M282.474 461.978C280.405 459.798 278.696 457.637 276.73 455.152C278.205 454.569 280.202 453.779 282.599 452.913C284.137 456.278 285.275 459.72 286.758 464.206C284.782 463.094 283.809 462.546 282.474 461.978Z" fill="black"/>
<path d="M228.913 454.403C229.043 453.682 229.25 453.363 229.729 452.939C232.535 454.009 235.071 455.184 237.011 456.084C233.641 459.273 230.145 462.58 226.051 465.974C225.26 466.358 225.069 466.657 224.878 466.956C224.649 466.406 224.08 465.712 224.243 465.33C225.754 461.792 227.391 458.307 228.913 454.403Z" fill="black"/>
<path d="M216.589 475.435C216.879 474.895 217.318 474.578 217.756 474.26C217.717 474.799 217.677 475.337 217.358 475.972C216.965 475.931 216.852 475.794 216.589 475.435Z" fill="black"/>
<path d="M225.105 466.891C225.069 466.657 225.26 466.359 225.721 466.113C225.846 466.461 225.627 466.681 225.105 466.891Z" fill="#F9F9F9"/>
<path d="M998.999 240.322C998.999 251.036 998.999 261.287 998.999 271.538C998.758 271.535 998.517 271.533 998.276 271.53C998.276 259.853 998.276 248.175 998.276 236.498C998.442 236.493 998.609 236.488 998.775 236.482C998.85 237.608 998.925 238.734 998.999 240.322Z" fill="black"/>
<path d="M442.606 218.383C444.221 218.273 445.871 218.204 447.502 217.994C452.087 217.404 456.664 216.756 462.445 215.967C463.422 223.395 464.539 231.885 465.656 240.376C462.893 232.87 449.812 219.602 442.974 218.546C442.685 218.309 442.633 218.358 442.606 218.383Z" fill="black"/>
<path d="M459.991 278.022C459.817 281.15 459.643 283.814 459.469 286.478C458.892 286.579 458.315 286.68 457.737 286.782C460.37 275.27 451.526 269.296 445.509 260.002C450.612 261.14 454.494 262.247 458.452 262.765C459.958 262.962 461.642 261.809 463.349 261.236C462.248 266.585 461.12 272.071 459.991 278.022Z" fill="black"/>
<path d="M434.581 299.22C438.014 301.798 441.212 304.833 444.975 306.77C446.989 307.807 449.977 306.954 452.46 306.954C450.075 312.863 447.511 319.216 444.366 327.008C443.739 316.098 440.245 307.848 434.124 300.233C434.37 299.519 434.475 299.369 434.581 299.22Z" fill="black"/>
<path d="M430.954 347.929C427.454 353.09 423.926 357.837 420.004 363.113C420.004 358.1 420.497 353.628 419.86 349.324C419.269 345.332 417.471 341.52 415.98 336.938C420.79 341.407 423.525 347.931 430.954 347.929Z" fill="black"/>
<path d="M392.942 103.999C395.885 102.363 398.441 100.73 401.415 98.8293C403.829 101.642 406.327 104.551 409.211 107.91C401.128 107.91 393.834 107.91 386.264 107.91C388.492 106.525 390.523 105.263 392.942 103.999Z" fill="black"/>
<path d="M363.71 80.9939C360.589 81.5127 357.88 82.0317 355.513 82.4851C357.342 79.7267 359.239 77.0514 360.936 74.2544C362.576 71.5508 364.481 71.2175 367.026 73.07C369.785 75.0786 372.736 76.824 374.88 78.2154C371.582 79.0673 367.852 80.0307 363.71 80.9939Z" fill="black"/>
<path d="M385.663 72.6292C384.929 72.4459 384.444 71.9774 384.055 71.4391C383.993 71.3534 384.366 70.9537 384.538 70.6992C385.006 71.2398 385.475 71.7804 385.663 72.6292Z" fill="black"/>
<path d="M470.435 279.544C470.264 280.421 469.934 281.084 469.118 282.72C469.214 280.85 469.256 280.021 469.611 279.062C470.041 279.066 470.158 279.199 470.435 279.544Z" fill="black"/>
<path d="M434.086 299.877C433.672 299.521 433.436 298.955 433.2 298.39C433.535 298.517 433.871 298.645 434.394 298.996C434.475 299.369 434.37 299.519 434.086 299.877Z" fill="black"/>
<path d="M419.9 102.134C420.316 102.491 420.559 103.051 420.801 103.612C420.468 103.478 420.135 103.345 419.609 102.993C419.52 102.628 419.623 102.482 419.9 102.134Z" fill="black"/>
<path d="M430.921 296.117C431.334 296.473 431.568 297.041 431.801 297.609C431.465 297.484 431.129 297.36 430.607 297.01C430.528 296.634 430.635 296.482 430.921 296.117Z" fill="black"/>
<path d="M374.588 418.437C374.909 417.977 375.379 417.737 375.848 417.497C375.777 417.956 375.705 418.415 375.355 418.97C374.963 418.93 374.85 418.794 374.588 418.437Z" fill="black"/>
<path d="M209.06 449.355C214.305 451.674 214.304 446.406 216.649 444.062C217 444.658 217.177 445.379 216.967 445.962C216.29 447.845 215.931 450.544 214.568 451.268C213.367 451.906 210.982 450.315 209.06 449.355Z" fill="#FAFAFA"/>
<path d="M183.227 465.268C184 463.25 184.999 461.5 186 459.375C186.803 460.309 187.606 461.619 188.409 462.929C186.757 463.798 185.105 464.667 183.227 465.268Z" fill="#FAFAFA"/>
<path d="M177.334 476.967C177 475.611 177 474.222 177 472.417C178.585 473.46 182.213 474.645 177.334 476.967Z" fill="#FAFAFA"/>
<path d="M226.769 444.181C227.494 444.262 227.988 444.524 228.741 444.893C228.343 445.275 227.686 445.551 227.029 445.826C226.865 445.338 226.702 444.85 226.769 444.181Z" fill="#FBFBFB"/>
<path d="M206.572 435.911C207.317 436.045 207.634 436.252 208.054 436.729C206.814 436.876 205.471 436.752 204.019 436.303C204.655 435.98 205.399 435.982 206.572 435.911Z" fill="black"/>
</g>
<defs>
<clipPath id="clip0_405_1083">
<rect width="2880" height="512" fill="white"/>
</clipPath>
</defs>
</svg>
