<svg width="33" height="33" viewBox="0 0 33 33" fill="none" xmlns="http://www.w3.org/2000/svg">
<rect width="33" height="33" rx="8" fill="#2F445F"/>
<path d="M10.4999 15.45L9.49993 16C9.2666 16.1333 9.0166 16.1667 8.74993 16.1C8.48327 16.0333 8.28327 15.8833 8.14994 15.65L6.14993 12.15C6.0166 11.9167 5.98327 11.6667 6.04993 11.4C6.1166 11.1333 6.2666 10.9333 6.49993 10.8L12.2499 7.5H13.9999C14.1499 7.5 14.2708 7.54583 14.3624 7.6375C14.4541 7.72917 14.4999 7.85 14.4999 8V8.5C14.4999 9.05 14.6958 9.52083 15.0874 9.9125C15.4791 10.3042 15.9499 10.5 16.4999 10.5C17.0499 10.5 17.5208 10.3042 17.9124 9.9125C18.3041 9.52083 18.4999 9.05 18.4999 8.5V8C18.4999 7.85 18.5458 7.72917 18.6374 7.6375C18.7291 7.54583 18.8499 7.5 18.9999 7.5H20.7499L26.4999 10.8C26.7333 10.9333 26.8833 11.1333 26.9499 11.4C27.0166 11.6667 26.9833 11.9167 26.8499 12.15L24.8499 15.65C24.7166 15.8833 24.5208 16.0292 24.2624 16.0875C24.0041 16.1458 23.7499 16.1083 23.4999 15.975L22.4999 15.475V24.5C22.4999 24.7833 22.4041 25.0208 22.2124 25.2125C22.0208 25.4042 21.7833 25.5 21.4999 25.5H11.4999C11.2166 25.5 10.9791 25.4042 10.7874 25.2125C10.5958 25.0208 10.4999 24.7833 10.4999 24.5V15.45ZM12.4999 12.1V23.5H20.4999V12.1L23.5999 13.8L24.6499 12.05L20.3499 9.55C20.0999 10.4 19.6291 11.1042 18.9374 11.6625C18.2458 12.2208 17.4333 12.5 16.4999 12.5C15.5666 12.5 14.7541 12.2208 14.0624 11.6625C13.3708 11.1042 12.8999 10.4 12.6499 9.55L8.34994 12.05L9.39993 13.8L12.4999 12.1Z" fill="#C6C6CD"/>
</svg>
