<svg width="33" height="33" viewBox="0 0 33 33" fill="none" xmlns="http://www.w3.org/2000/svg">
<rect width="33" height="33" rx="8" fill="#2F445F"/>
<path d="M13.675 20.5H7.5C7.21667 20.5 6.97917 20.4042 6.7875 20.2125C6.59583 20.0208 6.5 19.7833 6.5 19.5C6.5 19.2167 6.59583 18.9792 6.7875 18.7875C6.97917 18.5958 7.21667 18.5 7.5 18.5H13.675L11.8 16.625C11.6167 16.4417 11.525 16.2125 11.525 15.9375C11.525 15.6625 11.6167 15.425 11.8 15.225C12 15.025 12.2375 14.925 12.5125 14.925C12.7875 14.925 13.025 15.025 13.225 15.225L16.8 18.8C16.9 18.9 16.9708 19.0083 17.0125 19.125C17.0542 19.2417 17.075 19.3667 17.075 19.5C17.075 19.6333 17.0542 19.7583 17.0125 19.875C16.9708 19.9917 16.9 20.1 16.8 20.2L13.2 23.8C13 24 12.7667 24.0958 12.5 24.0875C12.2333 24.0792 12 23.975 11.8 23.775C11.6167 23.575 11.5208 23.3417 11.5125 23.075C11.5042 22.8083 11.6 22.575 11.8 22.375L13.675 20.5ZM19.325 14.5L21.2 16.375C21.3833 16.5583 21.475 16.7875 21.475 17.0625C21.475 17.3375 21.3833 17.575 21.2 17.775C21 17.975 20.7625 18.075 20.4875 18.075C20.2125 18.075 19.975 17.975 19.775 17.775L16.2 14.2C16.1 14.1 16.0292 13.9917 15.9875 13.875C15.9458 13.7583 15.925 13.6333 15.925 13.5C15.925 13.3667 15.9458 13.2417 15.9875 13.125C16.0292 13.0083 16.1 12.9 16.2 12.8L19.8 9.19999C20 8.99999 20.2333 8.90415 20.5 8.91249C20.7667 8.92082 21 9.02499 21.2 9.22499C21.3833 9.42499 21.4792 9.65832 21.4875 9.92499C21.4958 10.1917 21.4 10.425 21.2 10.625L19.325 12.5H25.5C25.7833 12.5 26.0208 12.5958 26.2125 12.7875C26.4042 12.9792 26.5 13.2167 26.5 13.5C26.5 13.7833 26.4042 14.0208 26.2125 14.2125C26.0208 14.4042 25.7833 14.5 25.5 14.5H19.325Z" fill="#C6C6CD"/>
</svg>
