<svg width="21" height="19" viewBox="0 0 21 19" fill="none" xmlns="http://www.w3.org/2000/svg">
<path d="M4.49993 8.45L3.49993 9C3.2666 9.13333 3.0166 9.16667 2.74994 9.1C2.48327 9.03333 2.28327 8.88333 2.14993 8.65L0.149935 5.15C0.0166016 4.91667 -0.0167318 4.66667 0.0499349 4.4C0.116602 4.13333 0.266602 3.93333 0.499935 3.8L6.24993 0.5H7.99994C8.14994 0.5 8.27077 0.545833 8.36244 0.6375C8.4541 0.729167 8.49994 0.85 8.49994 1V1.5C8.49994 2.05 8.69577 2.52083 9.08744 2.9125C9.4791 3.30417 9.94994 3.5 10.4999 3.5C11.0499 3.5 11.5208 3.30417 11.9124 2.9125C12.3041 2.52083 12.4999 2.05 12.4999 1.5V1C12.4999 0.85 12.5458 0.729167 12.6374 0.6375C12.7291 0.545833 12.8499 0.5 12.9999 0.5H14.7499L20.4999 3.8C20.7333 3.93333 20.8833 4.13333 20.9499 4.4C21.0166 4.66667 20.9833 4.91667 20.8499 5.15L18.8499 8.65C18.7166 8.88333 18.5208 9.02917 18.2624 9.0875C18.0041 9.14583 17.7499 9.10833 17.4999 8.975L16.4999 8.475V17.5C16.4999 17.7833 16.4041 18.0208 16.2124 18.2125C16.0208 18.4042 15.7833 18.5 15.4999 18.5H5.49993C5.2166 18.5 4.9791 18.4042 4.78743 18.2125C4.59577 18.0208 4.49993 17.7833 4.49993 17.5V8.45ZM6.49994 5.1V16.5H14.4999V5.1L17.5999 6.8L18.6499 5.05L14.3499 2.55C14.0999 3.4 13.6291 4.10417 12.9374 4.6625C12.2458 5.22083 11.4333 5.5 10.4999 5.5C9.5666 5.5 8.7541 5.22083 8.06244 4.6625C7.37077 4.10417 6.89994 3.4 6.64994 2.55L2.34993 5.05L3.39993 6.8L6.49994 5.1Z" fill="#C6C6CD"/>
</svg>
