<svg width="18" height="19" viewBox="0 0 18 19" fill="none" xmlns="http://www.w3.org/2000/svg">
<mask id="path-1-inside-1_670_1025" fill="white">
<path d="M17.9995 9.5C17.9995 14.4757 13.9752 18.5 8.99951 18.5C4.0238 18.5 -0.000488281 14.4757 -0.000488281 9.5C-0.000488281 4.52429 4.0238 0.5 8.99951 0.5C12.5867 0.5 15.6852 2.59571 17.1381 5.64286"/>
</mask>
<path d="M17.9995 9.5H15.9995C15.9995 13.3711 12.8707 16.5 8.99951 16.5V18.5V20.5C15.0798 20.5 19.9995 15.5803 19.9995 9.5H17.9995ZM8.99951 18.5V16.5C5.12837 16.5 1.99951 13.3711 1.99951 9.5H-0.000488281H-2.00049C-2.00049 15.5803 2.91923 20.5 8.99951 20.5V18.5ZM-0.000488281 9.5H1.99951C1.99951 5.62886 5.12837 2.5 8.99951 2.5V0.5V-1.5C2.91923 -1.5 -2.00049 3.41972 -2.00049 9.5H-0.000488281ZM8.99951 0.5V2.5C11.7864 2.5 14.199 4.12575 15.3328 6.50361L17.1381 5.64286L18.9434 4.7821C17.1714 1.06568 13.3869 -1.5 8.99951 -1.5V0.5Z" fill="#006CE0" mask="url(#path-1-inside-1_670_1025)"/>
<mask id="path-3-inside-2_670_1025" fill="white">
<path fill-rule="evenodd" clip-rule="evenodd" d="M11.5713 7.51972L17.9999 7.57115V1.14258H16.0713V5.64258H11.5713V7.51972Z"/>
</mask>
<path d="M11.5713 7.51972H8.57129V10.4958L11.5473 10.5196L11.5713 7.51972ZM17.9999 7.57115L17.9759 10.5711L20.9999 10.5952V7.57115H17.9999ZM17.9999 1.14258H20.9999V-1.85742H17.9999V1.14258ZM16.0713 1.14258V-1.85742H13.0713V1.14258H16.0713ZM16.0713 5.64258V8.64258H19.0713V5.64258H16.0713ZM11.5713 5.64258V2.64258H8.57129V5.64258H11.5713ZM16.0713 1.14258V4.14258H17.9999V1.14258V-1.85742H16.0713V1.14258ZM16.0713 1.14258H13.0713V5.64258H16.0713H19.0713V1.14258H16.0713ZM16.0713 5.64258V2.64258H11.5713V5.64258V8.64258H16.0713V5.64258ZM11.5713 7.51972H14.5713V5.64258H11.5713H8.57129V7.51972H11.5713ZM17.9999 7.57115L18.0239 4.57125L11.5953 4.51982L11.5713 7.51972L11.5473 10.5196L17.9759 10.5711L17.9999 7.57115ZM17.9999 1.14258H14.9999V7.57115H17.9999H20.9999V1.14258H17.9999Z" fill="#006CE0" mask="url(#path-3-inside-2_670_1025)"/>
</svg>
