<svg width="15" height="15" viewBox="0 0 15 15" fill="none" xmlns="http://www.w3.org/2000/svg">
<path d="M6.81898 10.6812H8.18117V6.87508H6.81898V10.6812ZM7.50008 5.69977C7.69831 5.69977 7.86451 5.63273 7.99867 5.49867C8.13273 5.36451 8.19977 5.19831 8.19977 5.00008C8.19977 4.80185 8.13273 4.63565 7.99867 4.50149C7.86451 4.36742 7.69831 4.30039 7.50008 4.30039C7.30185 4.30039 7.13565 4.36742 7.00148 4.50149C6.86742 4.63565 6.80039 4.80185 6.80039 5.00008C6.80039 5.19831 6.86742 5.36451 7.00148 5.49867C7.13565 5.63273 7.30185 5.69977 7.50008 5.69977ZM7.50008 13.8771C6.6156 13.8771 5.7857 13.7098 5.01039 13.3752C4.23497 13.0407 3.56049 12.5866 2.98695 12.0132C2.41352 11.4397 1.95951 10.7652 1.62492 9.98977C1.29034 9.21445 1.12305 8.38456 1.12305 7.50008C1.12305 6.6156 1.29034 5.7857 1.62492 5.01039C1.95951 4.23497 2.41352 3.56049 2.98695 2.98695C3.56049 2.41352 4.23497 1.95951 5.01039 1.62492C5.7857 1.29034 6.6156 1.12305 7.50008 1.12305C8.38456 1.12305 9.21445 1.29034 9.98977 1.62492C10.7652 1.95951 11.4397 2.41352 12.0132 2.98695C12.5866 3.56049 13.0407 4.23497 13.3752 5.01039C13.7098 5.7857 13.8771 6.6156 13.8771 7.50008C13.8771 8.38456 13.7098 9.21445 13.3752 9.98977C13.0407 10.7652 12.5866 11.4397 12.0132 12.0132C11.4397 12.5866 10.7652 13.0407 9.98977 13.3752C9.21445 13.7098 8.38456 13.8771 7.50008 13.8771ZM7.50008 12.4552C8.88591 12.4552 10.0583 11.9759 11.0171 11.0171C11.9759 10.0583 12.4552 8.88591 12.4552 7.50008C12.4552 6.11424 11.9759 4.9419 11.0171 3.98305C10.0583 3.0243 8.88591 2.54492 7.50008 2.54492C6.11424 2.54492 4.9419 3.0243 3.98305 3.98305C3.0243 4.9419 2.54492 6.11424 2.54492 7.50008C2.54492 8.88591 3.0243 10.0583 3.98305 11.0171C4.9419 11.9759 6.11424 12.4552 7.50008 12.4552Z" fill="#9BA7B6"/>
</svg>
